<svg xmlns="http://www.w3.org/2000/svg" height="26" viewBox="0 0 40 26" width="40">
  <defs>
    <style>
      .fill{
		fill: #6E6E6E;
		fill-rule: evenodd;
		}
    </style>
  </defs>
  <g id="icons">
    <path class="fill" d="M18,8.6V19.4a.55689.55689,0,0,0,.5.6h1a.55689.55689,0,0,0,.5-.6V8.6a.55689.55689,0,0,0-.5-.6h-1A.55689.55689,0,0,0,18,8.6Z" />
    <path class="fill" d="M14,8.6V19.4a.55689.55689,0,0,0,.5.6h1a.55689.55689,0,0,0,.5-.6V8.6a.55689.55689,0,0,0-.5-.6h-1A.55689.55689,0,0,0,14,8.6Z" />
    <path class="fill" d="M29.5,4H24a4,4,0,0,0-4-4H18a4,4,0,0,0-4,4H8.5a.5.5,0,0,0-.5.5v1a.5.5,0,0,0,.5.5H10V22a2,2,0,0,0,2,2H26a2,2,0,0,0,2-2V6h1.5a.5.5,0,0,0,.5-.5v-1A.5.5,0,0,0,29.5,4ZM16,3a1,1,0,0,1,1-1h4a1,1,0,0,1,1,1V4H16ZM26,22H12V6H26Z" />
    <path class="fill" d="M22.5,20h1a.55689.55689,0,0,0,.5-.6V8.6a.55689.55689,0,0,0-.5-.6h-1a.55689.55689,0,0,0-.5.6V19.4A.55689.55689,0,0,0,22.5,20Z" />
  </g>
</svg>