<svg id="icons" xmlns="http://www.w3.org/2000/svg" width="132" height="90" viewBox="0 0 132 90">
  <defs>
    <style>
      .fill {
        fill-rule: evenodd;
        opacity: 0.65;
      }

      .fillMedium {
        opacity: 0.3;
      }

      .cls-1 {
        fill: #f0f;
      }
    </style>
  </defs>
  <path class="fill" d="M0,1V89a1,1,0,0,0,1,1H131a1,1,0,0,0,1-1V1a1,1,0,0,0-1-1H1A1,1,0,0,0,0,1ZM130,88H2V2H130Z"/>
  <path class="fillMedium" d="M81,14h36a1,1,0,0,1,1,1V62.5a.5.5,0,0,0-.5-.5H116V58h-4v4h2.5a.5.5,0,0,0-.5.5V64h-2v4h2v2h-2v2h-2V70h-4v2h-1.5a.5.5,0,0,0-.5.5V70h-4v4h4v1.5a.5.5,0,0,0,.5.5H81a1,1,0,0,1-1-1V15A1,1,0,0,1,81,14Zm31,42h4V52h-4Zm0-6h4V46h-4Zm0-6h4V40h-4Zm0-6h4V34h-4Zm0-6h4V28h-4Zm0-6h4V22h-4Zm0-6h4V16h-4Zm-6,48h4V64h-4Zm0-6h4V58h-4Zm0-6h4V52h-4Zm0-6h4V46h-4Zm0-6h4V40h-4Zm0-6h4V34h-4Zm0-6h4V28h-4Zm0-6h4V22h-4Zm0-6h4V16h-4Zm-6,48h4V64h-4Zm0-6h4V58h-4Zm0-6h4V52h-4Zm0-6h4V46h-4Zm0-6h4V40h-4Zm0-6h4V34h-4Zm0-6h4V28h-4Zm0-6h4V22h-4Zm0-6h4V16h-4ZM94,74h4V70H94Zm0-6h4V64H94Zm0-6h4V58H94Zm0-6h4V52H94Zm0-6h4V46H94Zm0-6h4V40H94Zm0-6h4V34H94Zm0-6h4V28H94Zm0-6h4V22H94Zm0-6h4V16H94ZM88,74h4V70H88Zm0-6h4V64H88Zm0-6h4V58H88Zm0-6h4V52H88Zm0-6h4V46H88Zm0-6h4V40H88Zm0-6h4V34H88Zm0-6h4V28H88Zm0-6h4V22H88Zm0-6h4V16H88ZM82,74h4V70H82Zm0-6h4V64H82Zm0-6h4V58H82Zm0-6h4V52H82Zm0-6h4V46H82Zm0-6h4V40H82Zm0-6h4V34H82Zm0-6h4V28H82Zm0-6h4V22H82Zm0-6h4V16H82Z"/>
  <path class="cls-1" d="M114,72V62.5a.5.5,0,0,1,.5-.5h3a.5.5,0,0,1,.5.5V75a1,1,0,0,1-1,1H104.5a.5.5,0,0,1-.5-.5v-3a.5.5,0,0,1,.5-.5Z"/>
  <path class="fillMedium" d="M51,14H15a1,1,0,0,0-1,1V62.5a.5.5,0,0,1,.5-.5H16V58h4v4H17.5a.5.5,0,0,1,.5.5V64h2v4H18v2h2v2h2V70h4v2h1.5a.5.5,0,0,1,.5.5V70h4v4H28v1.5a.5.5,0,0,1-.5.5H51a1,1,0,0,0,1-1V15A1,1,0,0,0,51,14ZM20,56H16V52h4Zm0-6H16V46h4Zm0-6H16V40h4Zm0-6H16V34h4Zm0-6H16V28h4Zm0-6H16V22h4Zm0-6H16V16h4Zm6,48H22V64h4Zm0-6H22V58h4Zm0-6H22V52h4Zm0-6H22V46h4Zm0-6H22V40h4Zm0-6H22V34h4Zm0-6H22V28h4Zm0-6H22V22h4Zm0-6H22V16h4Zm6,48H28V64h4Zm0-6H28V58h4Zm0-6H28V52h4Zm0-6H28V46h4Zm0-6H28V40h4Zm0-6H28V34h4Zm0-6H28V28h4Zm0-6H28V22h4Zm0-6H28V16h4Zm6,54H34V70h4Zm0-6H34V64h4Zm0-6H34V58h4Zm0-6H34V52h4Zm0-6H34V46h4Zm0-6H34V40h4Zm0-6H34V34h4Zm0-6H34V28h4Zm0-6H34V22h4Zm0-6H34V16h4Zm6,54H40V70h4Zm0-6H40V64h4Zm0-6H40V58h4Zm0-6H40V52h4Zm0-6H40V46h4Zm0-6H40V40h4Zm0-6H40V34h4Zm0-6H40V28h4Zm0-6H40V22h4Zm0-6H40V16h4Zm6,54H46V70h4Zm0-6H46V64h4Zm0-6H46V58h4Zm0-6H46V52h4Zm0-6H46V46h4Zm0-6H46V40h4Zm0-6H46V34h4Zm0-6H46V28h4Zm0-6H46V22h4Zm0-6H46V16h4Z"/>
  <path class="cls-1" d="M18,72V62.5a.5.5,0,0,0-.5-.5h-3a.5.5,0,0,0-.5.5V75a1,1,0,0,0,1,1H27.5a.5.5,0,0,0,.5-.5v-3a.5.5,0,0,0-.5-.5Z"/>
</svg>
