<svg id="icons" xmlns="http://www.w3.org/2000/svg" width="132" height="90" viewBox="0 0 132 90">
  <defs>
    <style>
      .fill {
        fill-rule: evenodd;
        opacity: 0.65;
      }

      .fillMedium {
        opacity: 0.3;
      }

      .cls-1 {
        fill: #f0f;
      }
    </style>
  </defs>
  <path class="fill" d="M0,1V89a1,1,0,0,0,1,1H131a1,1,0,0,0,1-1V1a1,1,0,0,0-1-1H1A1,1,0,0,0,0,1ZM130,88H2V2H130Z"/>
  <path class="fillMedium" d="M117,14H81a1,1,0,0,0-1,1V62.5a.5.5,0,0,1,.5-.5H82V58h4v4H83.5a.5.5,0,0,1,.5.5V64h2v4H84v2h2v2h2V70h4v2h1.5a.5.5,0,0,1,.5.5V70h4v4H94v1.5a.5.5,0,0,1-.5.5H117a1,1,0,0,0,1-1V15A1,1,0,0,0,117,14ZM86,56H82V52h4Zm0-6H82V46h4Zm0-6H82V40h4Zm0-6H82V34h4Zm0-6H82V28h4Zm0-6H82V22h4Zm0-6H82V16h4Zm6,48H88V64h4Zm0-6H88V58h4Zm0-6H88V52h4Zm0-6H88V46h4Zm0-6H88V40h4Zm0-6H88V34h4Zm0-6H88V28h4Zm0-6H88V22h4Zm0-6H88V16h4Zm6,48H94V64h4Zm0-6H94V58h4Zm0-6H94V52h4Zm0-6H94V46h4Zm0-6H94V40h4Zm0-6H94V34h4Zm0-6H94V28h4Zm0-6H94V22h4Zm0-6H94V16h4Zm6,54h-4V70h4Zm0-6h-4V64h4Zm0-6h-4V58h4Zm0-6h-4V52h4Zm0-6h-4V46h4Zm0-6h-4V40h4Zm0-6h-4V34h4Zm0-6h-4V28h4Zm0-6h-4V22h4Zm0-6h-4V16h4Zm6,54h-4V70h4Zm0-6h-4V64h4Zm0-6h-4V58h4Zm0-6h-4V52h4Zm0-6h-4V46h4Zm0-6h-4V40h4Zm0-6h-4V34h4Zm0-6h-4V28h4Zm0-6h-4V22h4Zm0-6h-4V16h4Zm6,54h-4V70h4Zm0-6h-4V64h4Zm0-6h-4V58h4Zm0-6h-4V52h4Zm0-6h-4V46h4Zm0-6h-4V40h4Zm0-6h-4V34h4Zm0-6h-4V28h4Zm0-6h-4V22h4Zm0-6h-4V16h4Z"/>
  <path class="cls-1" d="M84,72V62.5a.5.5,0,0,0-.5-.5h-3a.5.5,0,0,0-.5.5V75a1,1,0,0,0,1,1H93.5a.5.5,0,0,0,.5-.5v-3a.5.5,0,0,0-.5-.5Z"/>
  <path class="fillMedium" d="M15,14H51a1,1,0,0,1,1,1V62.5a.5.5,0,0,0-.5-.5H50V58H46v4h2.5a.5.5,0,0,0-.5.5V64H46v4h2v2H46v2H44V70H40v2H38.5a.5.5,0,0,0-.5.5V70H34v4h4v1.5a.5.5,0,0,0,.5.5H15a1,1,0,0,1-1-1V15A1,1,0,0,1,15,14ZM46,56h4V52H46Zm0-6h4V46H46Zm0-6h4V40H46Zm0-6h4V34H46Zm0-6h4V28H46Zm0-6h4V22H46Zm0-6h4V16H46ZM40,68h4V64H40Zm0-6h4V58H40Zm0-6h4V52H40Zm0-6h4V46H40Zm0-6h4V40H40Zm0-6h4V34H40Zm0-6h4V28H40Zm0-6h4V22H40Zm0-6h4V16H40ZM34,68h4V64H34Zm0-6h4V58H34Zm0-6h4V52H34Zm0-6h4V46H34Zm0-6h4V40H34Zm0-6h4V34H34Zm0-6h4V28H34Zm0-6h4V22H34Zm0-6h4V16H34ZM28,74h4V70H28Zm0-6h4V64H28Zm0-6h4V58H28Zm0-6h4V52H28Zm0-6h4V46H28Zm0-6h4V40H28Zm0-6h4V34H28Zm0-6h4V28H28Zm0-6h4V22H28Zm0-6h4V16H28ZM22,74h4V70H22Zm0-6h4V64H22Zm0-6h4V58H22Zm0-6h4V52H22Zm0-6h4V46H22Zm0-6h4V40H22Zm0-6h4V34H22Zm0-6h4V28H22Zm0-6h4V22H22Zm0-6h4V16H22ZM16,74h4V70H16Zm0-6h4V64H16Zm0-6h4V58H16Zm0-6h4V52H16Zm0-6h4V46H16Zm0-6h4V40H16Zm0-6h4V34H16Zm0-6h4V28H16Zm0-6h4V22H16Zm0-6h4V16H16Z"/>
  <path class="cls-1" d="M48,72V62.5a.5.5,0,0,1,.5-.5h3a.5.5,0,0,1,.5.5V75a1,1,0,0,1-1,1H38.5a.5.5,0,0,1-.5-.5v-3a.5.5,0,0,1,.5-.5Z"/>
</svg>
