<svg id="S_CenterComp_66x45_N_2x" data-name="S_CenterComp_66x45_N@2x" xmlns="http://www.w3.org/2000/svg" width="132" height="90" viewBox="0 0 132 90">
  <defs>
    <style>
      .cls-1 {
        fill: #f0f;
      }

      .fillMedium {
        opacity: 0.3;
      }

      .fill {
        fill-rule: evenodd;
        opacity: 0.65;
      }

      
    </style>
  </defs>
  <title>S_CenterComp_66x45_N@2x</title>
  <path class="cls-1" d="M37,3.5v-1a.5.5,0,0,0-.5-.5h-7a.5.5,0,0,0-.5.5v1a.5.5,0,0,0,.5.5H32v8H29.5a.5.5,0,0,0-.5.5v1a.5.5,0,0,0,.5.5h7a.5.5,0,0,0,.5-.5v-1a.5.5,0,0,0-.5-.5H34V4h2.5A.5.5,0,0,0,37,3.5Z"/>
  <path class="cls-1" d="M3.5,41h-1a.5.5,0,0,0-.5.5v7a.5.5,0,0,0,.5.5h1a.5.5,0,0,0,.5-.5V46h8v2.5a.5.5,0,0,0,.5.5h1a.5.5,0,0,0,.5-.5v-7a.5.5,0,0,0-.5-.5h-1a.5.5,0,0,0-.5.5V44H4V41.5A.5.5,0,0,0,3.5,41Z"/>
  <path class="cls-1" d="M53.5,41h-1a.5.5,0,0,0-.5.5v7a.5.5,0,0,0,.5.5h1a.5.5,0,0,0,.5-.5V46h8v2.5a.5.5,0,0,0,.5.5h1a.5.5,0,0,0,.5-.5v-7a.5.5,0,0,0-.5-.5h-1a.5.5,0,0,0-.5.5V44H54V41.5A.5.5,0,0,0,53.5,41Z"/>
  <path class="cls-1" d="M69.5,41h-1a.5.5,0,0,0-.5.5v7a.5.5,0,0,0,.5.5h1a.5.5,0,0,0,.5-.5V46h8v2.5a.5.5,0,0,0,.5.5h1a.5.5,0,0,0,.5-.5v-7a.5.5,0,0,0-.5-.5h-1a.5.5,0,0,0-.5.5V44H70V41.5A.5.5,0,0,0,69.5,41Z"/>
  <path class="cls-1" d="M119.5,41h-1a.5.5,0,0,0-.5.5v7a.5.5,0,0,0,.5.5h1a.5.5,0,0,0,.5-.5V46h8v2.5a.5.5,0,0,0,.5.5h1a.5.5,0,0,0,.5-.5v-7a.5.5,0,0,0-.5-.5h-1a.5.5,0,0,0-.5.5V44h-8V41.5A.5.5,0,0,0,119.5,41Z"/>
  <path class="cls-1" d="M29,86.5v1a.5.5,0,0,0,.5.5h7a.5.5,0,0,0,.5-.5v-1a.5.5,0,0,0-.5-.5H34V78h2.5a.5.5,0,0,0,.5-.5v-1a.5.5,0,0,0-.5-.5h-7a.5.5,0,0,0-.5.5v1a.5.5,0,0,0,.5.5H32v8H29.5A.5.5,0,0,0,29,86.5Z"/>
  <path class="cls-1" d="M103,3.5v-1a.5.5,0,0,0-.5-.5h-7a.5.5,0,0,0-.5.5v1a.5.5,0,0,0,.5.5H98v8H95.5a.5.5,0,0,0-.5.5v1a.5.5,0,0,0,.5.5h7a.5.5,0,0,0,.5-.5v-1a.5.5,0,0,0-.5-.5H100V4h2.5A.5.5,0,0,0,103,3.5Z"/>
  <path class="cls-1" d="M95,86.5v1a.5.5,0,0,0,.5.5h7a.5.5,0,0,0,.5-.5v-1a.5.5,0,0,0-.5-.5H100V78h2.5a.5.5,0,0,0,.5-.5v-1a.5.5,0,0,0-.5-.5h-7a.5.5,0,0,0-.5.5v1a.5.5,0,0,0,.5.5H98v8H95.5A.5.5,0,0,0,95,86.5Z"/>
  <path class="fillMedium" d="M14,15V75a1,1,0,0,0,1,1H51a1,1,0,0,0,1-1V15a1,1,0,0,0-1-1H15A1,1,0,0,0,14,15Zm6,59H16V70h4Zm0-6H16V64h4Zm0-6H16V58h4Zm0-6H16V52h4Zm0-6H16V46h4Zm0-6H16V40h4Zm0-6H16V34h4Zm0-6H16V28h4Zm0-6H16V22h4Zm0-6H16V16h4Zm6,54H22V70h4Zm0-6H22V64h4Zm0-6H22V58h4Zm0-6H22V52h4Zm0-6H22V46h4Zm0-6H22V40h4Zm0-6H22V34h4Zm0-6H22V28h4Zm0-6H22V22h4Zm0-6H22V16h4Zm6,54H28V70h4Zm0-6H28V64h4Zm0-6H28V58h4Zm0-6H28V52h4Zm0-6H28V46h4Zm0-6H28V40h4Zm0-6H28V34h4Zm0-6H28V28h4Zm0-6H28V22h4Zm0-6H28V16h4Zm6,54H34V70h4Zm0-6H34V64h4Zm0-6H34V58h4Zm0-6H34V52h4Zm0-6H34V46h4Zm0-6H34V40h4Zm0-6H34V34h4Zm0-6H34V28h4Zm0-6H34V22h4Zm0-6H34V16h4Zm6,54H40V70h4Zm0-6H40V64h4Zm0-6H40V58h4Zm0-6H40V52h4Zm0-6H40V46h4Zm0-6H40V40h4Zm0-6H40V34h4Zm0-6H40V28h4Zm0-6H40V22h4Zm0-6H40V16h4Zm6,54H46V70h4Zm0-6H46V64h4Zm0-6H46V58h4Zm0-6H46V52h4Zm0-6H46V46h4Zm0-6H46V40h4Zm0-6H46V34h4Zm0-6H46V28h4Zm0-6H46V22h4Zm0-6H46V16h4Z"/>
  <path class="fillMedium" d="M80,15V75a1,1,0,0,0,1,1h36a1,1,0,0,0,1-1V15a1,1,0,0,0-1-1H81A1,1,0,0,0,80,15Zm6,59H82V70h4Zm0-6H82V64h4Zm0-6H82V58h4Zm0-6H82V52h4Zm0-6H82V46h4Zm0-6H82V40h4Zm0-6H82V34h4Zm0-6H82V28h4Zm0-6H82V22h4Zm0-6H82V16h4Zm6,54H88V70h4Zm0-6H88V64h4Zm0-6H88V58h4Zm0-6H88V52h4Zm0-6H88V46h4Zm0-6H88V40h4Zm0-6H88V34h4Zm0-6H88V28h4Zm0-6H88V22h4Zm0-6H88V16h4Zm6,54H94V70h4Zm0-6H94V64h4Zm0-6H94V58h4Zm0-6H94V52h4Zm0-6H94V46h4Zm0-6H94V40h4Zm0-6H94V34h4Zm0-6H94V28h4Zm0-6H94V22h4Zm0-6H94V16h4Zm6,54h-4V70h4Zm0-6h-4V64h4Zm0-6h-4V58h4Zm0-6h-4V52h4Zm0-6h-4V46h4Zm0-6h-4V40h4Zm0-6h-4V34h4Zm0-6h-4V28h4Zm0-6h-4V22h4Zm0-6h-4V16h4Zm6,54h-4V70h4Zm0-6h-4V64h4Zm0-6h-4V58h4Zm0-6h-4V52h4Zm0-6h-4V46h4Zm0-6h-4V40h4Zm0-6h-4V34h4Zm0-6h-4V28h4Zm0-6h-4V22h4Zm0-6h-4V16h4Zm6,54h-4V70h4Zm0-6h-4V64h4Zm0-6h-4V58h4Zm0-6h-4V52h4Zm0-6h-4V46h4Zm0-6h-4V40h4Zm0-6h-4V34h4Zm0-6h-4V28h4Zm0-6h-4V22h4Zm0-6h-4V16h4Z"/>
  <path class="fill" d="M0,1V89a1,1,0,0,0,1,1H131a1,1,0,0,0,1-1V1a1,1,0,0,0-1-1H1A1,1,0,0,0,0,1ZM130,88H2V2H130Z"/>
  </svg>