<svg id="S_TopInside_66x45_N_2x" data-name="S_TopInside_66x45_N@2x" xmlns="http://www.w3.org/2000/svg" width="132" height="90" viewBox="0 0 132 90">
  <defs>
    <style>
      .fill {
        fill-rule: evenodd;
        opacity: 0.65;
      }

      .fillMedium {
        opacity: 0.3;
      }

      .cls-1 {
        fill: #f0f;
      }

      
    </style>
  </defs>
  <title>S_TopInside_66x45_N@2x</title>
  <path class="fill" d="M132,89V1a1,1,0,0,0-1-1H1A1,1,0,0,0,0,1V89a1,1,0,0,0,1,1H131A1,1,0,0,0,132,89ZM2,2H130V88H2Z" transform="translate(0 0)"/>
  <path class="fillMedium" d="M15,76H51a1,1,0,0,0,1-1V27.5a.5.5,0,0,1-.5.5H50v4H46V28h2.5a.5.5,0,0,1-.5-.5V26H46V22h2V20H46V18H44v2H40V18H38.5a.5.5,0,0,1-.5-.5V20H34V16h4V14.5a.5.5,0,0,1,.5-.5H15a1,1,0,0,0-1,1V75A1,1,0,0,0,15,76ZM46,34h4v4H46Zm0,6h4v4H46Zm0,6h4v4H46Zm0,6h4v4H46Zm0,6h4v4H46Zm0,6h4v4H46Zm0,6h4v4H46ZM40,22h4v4H40Zm0,6h4v4H40Zm0,6h4v4H40Zm0,6h4v4H40Zm0,6h4v4H40Zm0,6h4v4H40Zm0,6h4v4H40Zm0,6h4v4H40Zm0,6h4v4H40ZM34,22h4v4H34Zm0,6h4v4H34Zm0,6h4v4H34Zm0,6h4v4H34Zm0,6h4v4H34Zm0,6h4v4H34Zm0,6h4v4H34Zm0,6h4v4H34Zm0,6h4v4H34ZM28,16h4v4H28Zm0,6h4v4H28Zm0,6h4v4H28Zm0,6h4v4H28Zm0,6h4v4H28Zm0,6h4v4H28Zm0,6h4v4H28Zm0,6h4v4H28Zm0,6h4v4H28Zm0,6h4v4H28ZM22,16h4v4H22Zm0,6h4v4H22Zm0,6h4v4H22Zm0,6h4v4H22Zm0,6h4v4H22Zm0,6h4v4H22Zm0,6h4v4H22Zm0,6h4v4H22Zm0,6h4v4H22Zm0,6h4v4H22ZM16,16h4v4H16Zm0,6h4v4H16Zm0,6h4v4H16Zm0,6h4v4H16Zm0,6h4v4H16Zm0,6h4v4H16Zm0,6h4v4H16Zm0,6h4v4H16Zm0,6h4v4H16Zm0,6h4v4H16Z" transform="translate(0 0)"/>
  <path class="cls-1" d="M48,18v9.5a.5.5,0,0,0,.5.5h3a.5.5,0,0,0,.5-.5V15a1,1,0,0,0-1-1H38.5a.5.5,0,0,0-.5.5v3a.5.5,0,0,0,.5.5Z" transform="translate(0 0)"/>
  <path class="fillMedium" d="M117,76H81a1,1,0,0,1-1-1V27.5a.5.5,0,0,0,.5.5H82v4h4V28H83.5a.5.5,0,0,0,.5-.5V26h2V22H84V20h2V18h2v2h4V18h1.5a.5.5,0,0,0,.5-.5V20h4V16H94V14.5a.5.5,0,0,0-.5-.5H117a1,1,0,0,1,1,1V75A1,1,0,0,1,117,76ZM86,34H82v4h4Zm0,6H82v4h4Zm0,6H82v4h4Zm0,6H82v4h4Zm0,6H82v4h4Zm0,6H82v4h4Zm0,6H82v4h4Zm6-48H88v4h4Zm0,6H88v4h4Zm0,6H88v4h4Zm0,6H88v4h4Zm0,6H88v4h4Zm0,6H88v4h4Zm0,6H88v4h4Zm0,6H88v4h4Zm0,6H88v4h4Zm6-48H94v4h4Zm0,6H94v4h4Zm0,6H94v4h4Zm0,6H94v4h4Zm0,6H94v4h4Zm0,6H94v4h4Zm0,6H94v4h4Zm0,6H94v4h4Zm0,6H94v4h4Zm6-54h-4v4h4Zm0,6h-4v4h4Zm0,6h-4v4h4Zm0,6h-4v4h4Zm0,6h-4v4h4Zm0,6h-4v4h4Zm0,6h-4v4h4Zm0,6h-4v4h4Zm0,6h-4v4h4Zm0,6h-4v4h4Zm6-54h-4v4h4Zm0,6h-4v4h4Zm0,6h-4v4h4Zm0,6h-4v4h4Zm0,6h-4v4h4Zm0,6h-4v4h4Zm0,6h-4v4h4Zm0,6h-4v4h4Zm0,6h-4v4h4Zm0,6h-4v4h4Zm6-54h-4v4h4Zm0,6h-4v4h4Zm0,6h-4v4h4Zm0,6h-4v4h4Zm0,6h-4v4h4Zm0,6h-4v4h4Zm0,6h-4v4h4Zm0,6h-4v4h4Zm0,6h-4v4h4Zm0,6h-4v4h4Z" transform="translate(0 0)"/>
  <path class="cls-1" d="M84,18v9.5a.5.5,0,0,1-.5.5h-3a.5.5,0,0,1-.5-.5V15a1,1,0,0,1,1-1H93.5a.5.5,0,0,1,.5.5v3a.5.5,0,0,1-.5.5Z" transform="translate(0 0)"/>
  </svg>