<svg id="S_TopOutside_66x45_N_2x" data-name="S_TopOutside_66x45_N@2x" xmlns="http://www.w3.org/2000/svg" width="132" height="90" viewBox="0 0 132 90">
  <defs>
    <style>
      .fill {
        fill-rule: evenodd;
        opacity: 0.65;
      }

      .fillMedium {
        opacity: 0.3;
      }

      .cls-1 {
        fill: #f0f;
      }

      
    </style>
  </defs>
  <title>S_TopOutside_66x45_N@2x</title>
  <path class="fill" d="M132,89V1a1,1,0,0,0-1-1H1A1,1,0,0,0,0,1V89a1,1,0,0,0,1,1H131A1,1,0,0,0,132,89ZM2,2H130V88H2Z" transform="translate(0 0)"/>
  <path class="fillMedium" d="M51,76H15a1,1,0,0,1-1-1V27.5a.5.5,0,0,0,.5.5H16v4h4V28H17.5a.5.5,0,0,0,.5-.5V26h2V22H18V20h2V18h2v2h4V18h1.5a.5.5,0,0,0,.5-.5V20h4V16H28V14.5a.5.5,0,0,0-.5-.5H51a1,1,0,0,1,1,1V75A1,1,0,0,1,51,76ZM20,34H16v4h4Zm0,6H16v4h4Zm0,6H16v4h4Zm0,6H16v4h4Zm0,6H16v4h4Zm0,6H16v4h4Zm0,6H16v4h4Zm6-48H22v4h4Zm0,6H22v4h4Zm0,6H22v4h4Zm0,6H22v4h4Zm0,6H22v4h4Zm0,6H22v4h4Zm0,6H22v4h4Zm0,6H22v4h4Zm0,6H22v4h4Zm6-48H28v4h4Zm0,6H28v4h4Zm0,6H28v4h4Zm0,6H28v4h4Zm0,6H28v4h4Zm0,6H28v4h4Zm0,6H28v4h4Zm0,6H28v4h4Zm0,6H28v4h4Zm6-54H34v4h4Zm0,6H34v4h4Zm0,6H34v4h4Zm0,6H34v4h4Zm0,6H34v4h4Zm0,6H34v4h4Zm0,6H34v4h4Zm0,6H34v4h4Zm0,6H34v4h4Zm0,6H34v4h4Zm6-54H40v4h4Zm0,6H40v4h4Zm0,6H40v4h4Zm0,6H40v4h4Zm0,6H40v4h4Zm0,6H40v4h4Zm0,6H40v4h4Zm0,6H40v4h4Zm0,6H40v4h4Zm0,6H40v4h4Zm6-54H46v4h4Zm0,6H46v4h4Zm0,6H46v4h4Zm0,6H46v4h4Zm0,6H46v4h4Zm0,6H46v4h4Zm0,6H46v4h4Zm0,6H46v4h4Zm0,6H46v4h4Zm0,6H46v4h4Z" transform="translate(0 0)"/>
  <path class="cls-1" d="M18,18v9.5a.5.5,0,0,1-.5.5h-3a.5.5,0,0,1-.5-.5V15a1,1,0,0,1,1-1H27.5a.5.5,0,0,1,.5.5v3a.5.5,0,0,1-.5.5Z" transform="translate(0 0)"/>
  <path class="fillMedium" d="M81,76h36a1,1,0,0,0,1-1V27.5a.5.5,0,0,1-.5.5H116v4h-4V28h2.5a.5.5,0,0,1-.5-.5V26h-2V22h2V20h-2V18h-2v2h-4V18h-1.5a.5.5,0,0,1-.5-.5V20h-4V16h4V14.5a.5.5,0,0,1,.5-.5H81a1,1,0,0,0-1,1V75A1,1,0,0,0,81,76Zm31-42h4v4h-4Zm0,6h4v4h-4Zm0,6h4v4h-4Zm0,6h4v4h-4Zm0,6h4v4h-4Zm0,6h4v4h-4Zm0,6h4v4h-4Zm-6-48h4v4h-4Zm0,6h4v4h-4Zm0,6h4v4h-4Zm0,6h4v4h-4Zm0,6h4v4h-4Zm0,6h4v4h-4Zm0,6h4v4h-4Zm0,6h4v4h-4Zm0,6h4v4h-4Zm-6-48h4v4h-4Zm0,6h4v4h-4Zm0,6h4v4h-4Zm0,6h4v4h-4Zm0,6h4v4h-4Zm0,6h4v4h-4Zm0,6h4v4h-4Zm0,6h4v4h-4Zm0,6h4v4h-4ZM94,16h4v4H94Zm0,6h4v4H94Zm0,6h4v4H94Zm0,6h4v4H94Zm0,6h4v4H94Zm0,6h4v4H94Zm0,6h4v4H94Zm0,6h4v4H94Zm0,6h4v4H94Zm0,6h4v4H94ZM88,16h4v4H88Zm0,6h4v4H88Zm0,6h4v4H88Zm0,6h4v4H88Zm0,6h4v4H88Zm0,6h4v4H88Zm0,6h4v4H88Zm0,6h4v4H88Zm0,6h4v4H88Zm0,6h4v4H88ZM82,16h4v4H82Zm0,6h4v4H82Zm0,6h4v4H82Zm0,6h4v4H82Zm0,6h4v4H82Zm0,6h4v4H82Zm0,6h4v4H82Zm0,6h4v4H82Zm0,6h4v4H82Zm0,6h4v4H82Z" transform="translate(0 0)"/>
  <path class="cls-1" d="M114,18v9.5a.5.5,0,0,0,.5.5h3a.5.5,0,0,0,.5-.5V15a1,1,0,0,0-1-1H104.5a.5.5,0,0,0-.5.5v3a.5.5,0,0,0,.5.5Z" transform="translate(0 0)"/>
  </svg>