<svg xmlns="http://www.w3.org/2000/svg" width="44" height="36" viewBox="0 0 44 36">
  <defs>
    <style>
      .fill {
        fill: #6e6e6e;
      }
    </style>
  </defs>
  <g id="icons-2" data-name="icons">
    <path class="fill" d="M18.7998,25.2002a4.40511,4.40511,0,0,1-4.3999-4.4004V15.2002a1.99976,1.99976,0,1,0-3.99951,0v5.5996A4.40521,4.40521,0,0,1,6,25.2002a1.2002,1.2002,0,0,1,0-2.4004,2.00229,2.00229,0,0,0,2-2V15.2002a4.40015,4.40015,0,1,1,8.80029,0v5.5996a1.99976,1.99976,0,1,0,3.99951,0V15.2002a4.40015,4.40015,0,1,1,8.8003,0V20a1.99976,1.99976,0,1,0,3.99951,0V15.2002A4.40521,4.40521,0,0,1,38,10.7998a1.2002,1.2002,0,1,1,0,2.4004,2.00229,2.00229,0,0,0-2,2V20a4.40015,4.40015,0,1,1-8.80029,0V15.2002a1.99976,1.99976,0,1,0-3.99951,0v5.5996A4.40522,4.40522,0,0,1,18.7998,25.2002Z"/>
  </g>
</svg>
