<svg id="icons" xmlns="http://www.w3.org/2000/svg" width="40" height="40" viewBox="0 0 40 40">
  <defs>
    <style>
      .fill {
        fill: #6e6e6e;
        fill-rule: evenodd;
      }
    </style>
  </defs>
  <path class="fill" d="M23.58579,4H7A1,1,0,0,0,6,5V35a1,1,0,0,0,1,1H33a1,1,0,0,0,1-1V14.41421a1,1,0,0,0-.29289-.7071L24.29289,4.29289A1,1,0,0,0,23.58579,4ZM24,6.82861,31.17151,14H24ZM32,34H8V6H22v9a1,1,0,0,0,1,1h9ZM13,15.4A2.4,2.4,0,1,1,15.4,13,2.4,2.4,0,0,1,13,15.4ZM16,23a3,3,0,1,1,3-3A3,3,0,0,1,16,23Zm8,7.2A4.2,4.2,0,1,1,28.2,26,4.2,4.2,0,0,1,24,30.2Z"/>
</svg>
