<svg xmlns="http://www.w3.org/2000/svg" data-name="S_Audio_20_N_D@2x" height="40" id="S_Audio_20_N_D@2x" viewBox="0 0 40 40" width="40">
  <defs>
    <style>
	.fill {
        fill: #ffffff;
		fill-rule: evenodd;
		opacity: 0.65;
	}
	</style>
  </defs>
  <path class="fill" d="M22,8.22681V31.77313a1,1,0,0,1-1.66437.74744L13,26H7a1,1,0,0,1-1-1V15a1,1,0,0,1,1-1h6l7.33563-6.52057A1,1,0,0,1,22,8.22681Zm4,2.28105v1.00132a.49783.49783,0,0,0,.4795.49219,8.00027,8.00027,0,0,1,0,15.97174A.49783.49783,0,0,0,26,28.46529v1.00133a.50609.50609,0,0,0,.52217.50722,10.00026,10.00026,0,0,0,0-19.9732A.50608.50608,0,0,0,26,10.50786Zm5,9.47938a5.00081,5.00081,0,0,0-4.42368-4.96715.50814.50814,0,0,0-.57632.497V16.516a.494.494,0,0,0,.40708.49868,3.00041,3.00041,0,0,1,0,5.94522A.494.494,0,0,0,26,23.45852v.99883a.50813.50813,0,0,0,.57632.497A5.0008,5.0008,0,0,0,31,19.98724Z" />
</svg>