<svg id="icons" xmlns="http://www.w3.org/2000/svg" width="26" height="26" viewBox="0 0 26 26">
  <defs>
    <style>
      .fill {
        fill: #6e6e6e;
        fill-rule: evenodd;
      }
    </style>
  </defs>
  <path class="fill" d="M12,2.998v20a1,1,0,0,1-1.66436.74741L5.81249,18.498H1a1,1,0,0,1-1-1v-9a1,1,0,0,1,1-1H5.81249l4.52315-5.24741A1,1,0,0,1,12,2.998Zm3,.52258V4.522a.49783.49783,0,0,0,.4795.49218,8.00027,8.00027,0,0,1,0,15.97174A.49783.49783,0,0,0,15,21.47805v1.00133a.50609.50609,0,0,0,.52217.50722,10.00026,10.00026,0,0,0,0-19.9732A.50609.50609,0,0,0,15,3.52062ZM20,13a5.0008,5.0008,0,0,0-4.42368-4.96714A.50813.50813,0,0,0,15,8.52989v.99882a.494.494,0,0,0,.40708.49868,3.00041,3.00041,0,0,1,0,5.94522A.494.494,0,0,0,15,16.47129v.99882a.50813.50813,0,0,0,.57632.497A5.0008,5.0008,0,0,0,20,13Z"/>
</svg>
