<svg xmlns="http://www.w3.org/2000/svg" data-name="S_Audio_40_N_D@2x" height="80" id="S_Audio_40_N_D@2x" viewBox="0 0 80 80" width="80">
  <defs>
    <style>
	.fill {
        fill: #ffffff;
		fill-rule: evenodd;
		opacity: 0.65;
	}
	</style>
  </defs>
  <path class="fill" d="M40,16.45363V63.54628a2,2,0,0,1-3.32874,1.49487L22,52H10a2,2,0,0,1-2-2V30a2,2,0,0,1,2-2H22L36.67126,14.95888A2,2,0,0,1,40,16.45363Zm8,4.5621v2.00265a.99567.99567,0,0,0,.959.98438,16.00053,16.00053,0,0,1,0,31.94347A.99566.99566,0,0,0,48,56.9306v2.00266a1.01217,1.01217,0,0,0,1.04435,1.01443,20.00051,20.00051,0,0,0,0-39.9464A1.01217,1.01217,0,0,0,48,21.01573ZM58,39.97449a10.00162,10.00162,0,0,0-8.84736-9.93429A1.01628,1.01628,0,0,0,48,31.03428v1.99764a.98789.98789,0,0,0,.81417.99734,6.00083,6.00083,0,0,1,0,11.89046A.9879.9879,0,0,0,48,46.91706v1.99765a1.01627,1.01627,0,0,0,1.15264.99407A10.00162,10.00162,0,0,0,58,39.97449Z" />
</svg>