<svg xmlns="http://www.w3.org/2000/svg" width="26" height="26" viewBox="0 0 26 26">
  <defs>
    <style>
      .fillMedium {
        opacity: 0.3;
      }

      .fill {
        fill: #6e6e6e;
        fill-rule: evenodd;
      }
    </style>
  </defs>
  <g id="icons">
    <path class="fillMedium" d="M12,12.5V14h8L10,4v8h1.502A.49832.49832,0,0,1,12,12.5Z"/>
    <path class="fill" d="M12,19.5a.5.5,0,0,1-.5.5h-7a.5.5,0,0,1-.5-.5v-7a.5.5,0,0,1,.5-.5h7a.5.5,0,0,1,.5.5Zm12.79485.5H22V16.5a.5.5,0,0,0-.5-.5h-3a.5.5,0,0,0-.5.5V20H15.20906a.5.5,0,0,0-.35355.85355L20.002,26l5.14644-5.14645A.5.5,0,0,0,24.79485,20ZM2.002,24,2,2H24V18h2V1a1,1,0,0,0-1-1H1A1,1,0,0,0,0,1V25a1,1,0,0,0,1,1H17l-1.998-2Z"/>
  </g>
</svg>
