<svg id="icons" xmlns="http://www.w3.org/2000/svg" width="40" height="26" viewBox="0 0 40 26">
  <defs>
    <style>
      .fill {
        fill: #6e6e6e;
        fill-rule: evenodd;
      }
    </style>
  </defs>
  <path class="fill" d="M36,5V23a1,1,0,0,1-1,1H24.5a.5.5,0,0,1-.5-.5v-1a.5.5,0,0,1,.5-.5H34V6H32v8l-3-2-3,2V6H18v5.5a.5.5,0,0,1-.5.5h-1a.5.5,0,0,1-.5-.5V5a1,1,0,0,1,1-1H30V2H14v9.5a.5.5,0,0,1-.5.5h-1a.5.5,0,0,1-.5-.5V1a1,1,0,0,1,1-1H31a1,1,0,0,1,1,1V4h3A1,1,0,0,1,36,5ZM11.8158,18A2.96519,2.96519,0,0,1,12,19a3.00344,3.00344,0,0,1-3,3H5a3,3,0,0,1,0-6H6.70215a7.01662,7.01662,0,0,1,1.41443-2H5A5,5,0,0,0,5,24H9a5.00085,5.00085,0,0,0,4.89917-6ZM17,14H13a5.00085,5.00085,0,0,0-4.89917,6H10.1842A2.96519,2.96519,0,0,1,10,19a3.00344,3.00344,0,0,1,3-3h4a3,3,0,0,1,0,6H15.29785a7.01662,7.01662,0,0,1-1.41443,2H17a5,5,0,0,0,0-10Z"/>
</svg>
