<svg xmlns="http://www.w3.org/2000/svg" height="26" viewBox="0 0 40 26" width="40">
  <defs>
    <style>
      .fillPale {
        opacity: 0.15;
      }

      .fill{
		fill: #6E6E6E;
		fill-rule: evenodd;
		}
    </style>
  </defs>
  <g id="icons">
    <circle class="fillPale" cx="18.09375" cy="10" r="4" />
    <path class="fill" d="M35.81525,6.77521a.5.5,0,0,0-.90515.05371l-1.20136,3.0426a30.43644,30.43644,0,0,0-8.838-1.78424c-.27167-.01416-.88538-.05255-1.11835-.0672A5.99691,5.99691,0,0,0,12.09375,10l.00012.0025a23.21467,23.21467,0,0,0-6.00012,3.27069L5.16425,14H.59375a.5.5,0,0,0-.5.5v5a.5.5,0,0,0,.5.5h5a.5.5,0,0,0,.5-.5V15.864a19.7466,19.7466,0,0,1,6.33612-3.89837,5.99592,5.99592,0,0,0,11.6618-1.92395c.33057.01879.80591.046,1.09052.06286A28.57135,28.57135,0,0,1,32.98248,11.711l-1.28582,3.25653a.5.5,0,0,0,.61914.6593l7.29077-1.921ZM4.09375,18h-2V16h2Zm14-4a4,4,0,1,1,4-4A4,4,0,0,1,18.09375,14Z" />
  </g>
</svg>