<svg xmlns="http://www.w3.org/2000/svg" height="32" viewBox="0 0 32 32" width="32">
  <defs>
    <style>
      .fill{
		fill: #6E6E6E;
		fill-rule: evenodd;
		}

      .fillMedium {
        opacity: 0.3;
      }
    </style>
  </defs>
  <g id="icons">
    <path class="fill" d="M26,10.5v1a.5.5,0,0,0,.5.5h3a.5.5,0,0,0,.5-.5v-1a.5.5,0,0,0-.5-.5h-3A.5.5,0,0,0,26,10.5Zm-10,0v1a.5.5,0,0,0,.5.5h3a.5.5,0,0,0,.5-.5v-1a.5.5,0,0,0-.5-.5h-3A.5.5,0,0,0,16,10.5Zm6,4v3a.5.5,0,0,0,.5.5h1a.5.5,0,0,0,.5-.5v-3a.5.5,0,0,0-.5-.5h-1A.5.5,0,0,0,22,14.5Zm0-10v3a.5.5,0,0,0,.5.5h1a.5.5,0,0,0,.5-.5v-3a.5.5,0,0,0-.5-.5h-1A.5.5,0,0,0,22,4.5Z" />
    <path class="fill" d="M15.4117,11A7.5883,7.5883,0,1,1,23,18.5884,7.58826,7.58826,0,0,1,15.4117,11ZM14.18,11A8.82,8.82,0,1,0,23,2.18,8.81994,8.81994,0,0,0,14.18,11Z" />
    <circle class="fill" cx="23" cy="11" r="1.1" />
    <path class="fillMedium" d="M23,22.05A11.045,11.045,0,0,1,12.34753,13.9H7A5.1,5.1,0,0,0,7,24.1H21a5.06119,5.06119,0,0,0,4.20319-2.27082A11.09688,11.09688,0,0,1,23,22.05Z" />
    <path class="fill" d="M25.20319,21.82916A5.06119,5.06119,0,0,1,21,24.1H7A5.1,5.1,0,0,1,7,13.9h5.34753a10.97971,10.97971,0,0,1-.347-1.9H7A7,7,0,0,0,7,26H21a6.981,6.981,0,0,0,6.68146-5.00159A10.94126,10.94126,0,0,1,25.20319,21.82916Z" />
  </g>
</svg>