<svg xmlns="http://www.w3.org/2000/svg" width="40" height="26" viewBox="0 0 40 26">
  <defs>
    <style>
      .fill {
        fill: #6e6e6e;
        fill-rule: evenodd;
      }
    </style>
  </defs>
  <g id="icons">
    <path id="Fill" class="fill" d="M4.5,12H12V8.575a.5.5,0,0,1,.8254-.37963L20,14l-7.1746,5.875A.5.5,0,0,1,12,19.49537V16H4.5a.5.5,0,0,1-.5-.5v-3A.5.5,0,0,1,4.5,12Z"/>
    <path class="fill" d="M33.70709,9.50708,26.49292,2.29291A1,1,0,0,0,25.78577,2H17a1,1,0,0,0-1,1V7.93726l2,1.71429V4h6v7a1,1,0,0,0,1,1h7v8H18V18.34845l-2,1.71429V21a1,1,0,0,0,1,1H33a1,1,0,0,0,1-1V10.21417A1,1,0,0,0,33.70709,9.50708ZM26,10V4.5L31.5,10Z"/>
  </g>
</svg>
