<svg xmlns="http://www.w3.org/2000/svg" data-name="S_HTTPMetedata_40_N_D@2x" height="80" id="S_HTTPMetedata_40_N_D@2x" viewBox="0 0 80 80" width="80">
  <defs>
    <style>
	.fill {
        fill: #ffffff;
		fill-rule: evenodd;
		opacity: 0.65;
	}
	</style>
  </defs>
  <g data-name="icons" id="icons-2">
    <path class="fill" d="M64,8H16a4,4,0,0,0-4,4V68a4.00012,4.00012,0,0,0,4,4H64a4.00012,4.00012,0,0,0,4-4V12A4,4,0,0,0,64,8ZM26,66H18V58h8Zm0-12H18V46h8Zm0-12H18V34h8ZM62,66H30V58H62Zm0-12H30V46H62Zm0-12H30V34H62Zm0-12H18V14H62Z" />
  </g>
</svg>