<svg id="icons" xmlns="http://www.w3.org/2000/svg" width="40" height="26" viewBox="0 0 40 26">
  <defs>
    <style>
      .fill {
        fill: #6e6e6e;
        fill-rule: evenodd;
      }
    </style>
  </defs>
  <path class="fill" d="M14,12V2h7.31445l4.12793,4.23694,1.41455-1.41455L22.75867.61646A2.00011,2.00011,0,0,0,21.31445,0H13a1,1,0,0,0-1,1V12Z"/>
  <path class="fill" d="M37.38879,13.41016l-2.95263-2.84937A2.00013,2.00013,0,0,0,33.04736,10H30V7.13635a.45.45,0,0,0-.76819-.31823l-3.8114,3.81152a.52369.52369,0,0,0,0,.74072l3.8114,3.8114A.45.45,0,0,0,30,14.86353V12h3.04736L36,14.84937V24H26V19.6333l-2,2V25a1,1,0,0,0,1,1H37a1,1,0,0,0,1-1V14.84937A1.99986,1.99986,0,0,0,37.38879,13.41016Z"/>
  <path class="fill" d="M13.89917,18H11.8158A2.96628,2.96628,0,0,1,12,19a3.00351,3.00351,0,0,1-3,3H5a3,3,0,0,1,0-6H6.70215a7.01526,7.01526,0,0,1,1.41443-2H5A5,5,0,0,0,5,24H9a5.00085,5.00085,0,0,0,4.89917-6Z"/>
  <path class="fill" d="M17,14H13a5.00085,5.00085,0,0,0-4.89917,6H10.1842A2.96682,2.96682,0,0,1,10,19a3.00335,3.00335,0,0,1,3-3h4a3,3,0,0,1,0,6H15.29785a7.01873,7.01873,0,0,1-1.41443,2H17a5,5,0,0,0,0-10Z"/>
</svg>
