<svg xmlns="http://www.w3.org/2000/svg" width="32" height="28" viewBox="0 0 32 28">
  <defs>
    <style>
      .cls-1 {
        fill: #fff;
      }

      .blue {
        fill: #1473e6;
      }
    </style>
  </defs>
  <g id="icons">
    <path class="cls-1" d="M32,14a8.00917,8.00917,0,0,1-8,8H8A8,8,0,0,1,8,6H24A8.00917,8.00917,0,0,1,32,14Zm-8,1a1,1,0,0,0,0-2H22.9375A8.04374,8.04374,0,0,1,23,14a7.74277,7.74277,0,0,1-.06738,1ZM9,14a7.74277,7.74277,0,0,1,.06738-1H8a1,1,0,0,0,0,2H9.0625A8.04374,8.04374,0,0,1,9,14Z"/>
    <path class="blue" d="M17.81567,15A2.96485,2.96485,0,0,0,18,14a3.00344,3.00344,0,0,0-3-3H8a3,3,0,0,0,0,6H9.589a8.02528,8.02528,0,0,0,2.13727,3H8A6,6,0,0,1,8,8h7a5.96727,5.96727,0,0,1,5.91,7ZM17,20h7A6,6,0,0,0,24,8H20.27374A8.02528,8.02528,0,0,1,22.411,11H24a3,3,0,0,1,0,6H17a3.00335,3.00335,0,0,1-3-3,2.96485,2.96485,0,0,1,.18433-1H11.09A5.96727,5.96727,0,0,0,17,20Z"/>
  </g>
</svg>
