<svg xmlns="http://www.w3.org/2000/svg" width="32" height="32" viewBox="0 0 32 32">
  <defs>
    <style>
      .fill {
        fill: #6e6e6e;
        fill-rule: evenodd;
      }
    </style>
  </defs>
  <g id="icons_x2" data-name="icons x2">
    <path class="fill" d="M14.18433,15A2.96485,2.96485,0,0,0,14,16a3.00344,3.00344,0,0,0,3,3h7a3,3,0,0,0,0-6H22.411a8.02528,8.02528,0,0,0-2.13727-3H24a6,6,0,0,1,0,12H17a5.96727,5.96727,0,0,1-5.91-7ZM15,10H8A6,6,0,0,0,8,22h3.72626A8.02528,8.02528,0,0,1,9.589,19H8a3,3,0,0,1,0-6h7a3.00335,3.00335,0,0,1,3,3,2.96485,2.96485,0,0,1-.18433,1H20.91A5.96727,5.96727,0,0,0,15,10Z"/>
  </g>
</svg>
