<svg xmlns="http://www.w3.org/2000/svg" width="40" height="26" viewBox="0 0 40 26">
  <defs>
    <style>
      .fill {
        fill: #6e6e6e;
        fill-rule: evenodd;
      }
    </style>
  </defs>
  <g id="icons_x2" data-name="icons x2">
    <path class="fill" d="M18.18433,12A2.96485,2.96485,0,0,0,18,13a3.00344,3.00344,0,0,0,3,3h7a3,3,0,0,0,0-6H26.411a8.02528,8.02528,0,0,0-2.13727-3H28a6,6,0,0,1,0,12H21a5.96727,5.96727,0,0,1-5.91-7ZM19,7H12a6,6,0,0,0,0,12h3.72626A8.02528,8.02528,0,0,1,13.589,16H12a3,3,0,0,1,0-6h7a3.00335,3.00335,0,0,1,3,3,2.96485,2.96485,0,0,1-.18433,1H24.91A5.96727,5.96727,0,0,0,19,7Z"/>
  </g>
</svg>
