<svg xmlns="http://www.w3.org/2000/svg" width="26" height="26" viewBox="0 0 26 26">
  <defs>
    <style>
      .fill {
        fill: #6e6e6e;
        fill-rule: evenodd;
      }
    </style>
  </defs>
  <g id="icons">
    <path class="fill" d="M21,10H20V8.25a6.92512,6.92512,0,0,0-6.95776-6.91662A7.00006,7.00006,0,0,0,6,8.25V10H5a1,1,0,0,0-1,1V21a1,1,0,0,0,1,1H21a1,1,0,0,0,1-1V11A1,1,0,0,0,21,10Zm-6.42419,6.72729v1.90906a1.00005,1.00005,0,0,1-1,1H12.39392a1,1,0,0,1-1-1V16.72729A2.764,2.764,0,0,1,10.4,14.69788a2.6,2.6,0,0,1,5.2,0A2.573,2.573,0,0,1,14.57581,16.72729ZM8.50641,10V8.254a4.3697,4.3697,0,0,1,4.54266-4.417,4.36971,4.36971,0,0,1,4.54267,4.417V10Z"/>
  </g>
</svg>
