<svg xmlns="http://www.w3.org/2000/svg" height="26" id="icons" viewBox="0 0 26 26" width="26">
  <defs>
    <style>
      .fill{
		fill: #6E6E6E;
		fill-rule: evenodd;
		}
    </style>
  </defs>
  <path class="fill" d="M21.21408,22.62829,3.30921,4.72342a.5.5,0,0,1,0-.7071l.70711-.70711a.5.5,0,0,1,.7071,0L22.62829,21.21408a.5.5,0,0,1,0,.7071l-.70711.70711A.5.5,0,0,1,21.21408,22.62829ZM11.5451,8.01l6.47254,6.47253,1.5415-2.76526a.66951.66951,0,0,0,.94617-.00055L22.92377,9.2981a.5.5,0,0,0,0-.7071l-5.515-5.51477a.5.5,0,0,0-.70709,0L14.25183,5.52594a.66944.66944,0,0,0,.00067.94739ZM7.03473,10.56989l-.27173.15417a1.33914,1.33914,0,0,0-.67261.70215L1.91284,21.51941a.33462.33462,0,0,0,.07257.36468l.55579.55573,4.00464-4.00464a1.81668,1.81668,0,1,1,1.05237,1.02924l-4.016,4.01593.59687.59674a.33448.33448,0,0,0,.36462.07257l10.08612-4.17487A1.33936,1.33936,0,0,0,15.337,19.291l.1499-.269Z" />
</svg>