<svg xmlns="http://www.w3.org/2000/svg" width="32" height="32" viewBox="0 0 32 32">
  <defs>
    <style>
      .fill {
        fill: #6e6e6e;
        fill-rule: evenodd;
      }
    </style>
  </defs>
  <g id="icons">
    <path class="fill" d="M12,8H26V26H4V6h8ZM2,3V27a1,1,0,0,0,1,1H27a1,1,0,0,0,1-1V7a1,1,0,0,0-1-1H14V3a1,1,0,0,0-1-1H3A1,1,0,0,0,2,3Z"/>
    <path class="fill" d="M8,22.5v1a.5.5,0,0,0,.5.5h13a.5.5,0,0,0,.5-.5v-1a.5.5,0,0,0-.5-.5H8.5A.5.5,0,0,0,8,22.5Zm0-4v1a.5.5,0,0,0,.5.5h13a.5.5,0,0,0,.5-.5v-1a.5.5,0,0,0-.5-.5H8.5A.5.5,0,0,0,8,18.5Zm0-4v1a.5.5,0,0,0,.5.5h11a.5.5,0,0,0,.5-.5v-1a.5.5,0,0,0-.5-.5H8.5A.5.5,0,0,0,8,14.5Zm0-4v1a.5.5,0,0,0,.5.5h13a.5.5,0,0,0,.5-.5v-1a.5.5,0,0,0-.5-.5H8.5A.5.5,0,0,0,8,10.5Z"/>
  </g>
</svg>
