<svg xmlns="http://www.w3.org/2000/svg" width="26" height="26" viewBox="0 0 26 26">
  <defs>
    <style>
      .cls-1 {
        fill: #fff;
      }

      .red {
        fill: #f53c3c;
      }
    </style>
  </defs>
  <g id="icons">
    <path class="cls-1" d="M13.04016,22.01614a2.30553,2.30553,0,1,1,0-4.60718,2.24529,2.24529,0,0,1,2.4,2.28833A2.21259,2.21259,0,0,1,13.04016,22.01614Zm3.057-9.55164-.16992.15564c-.67634.6145-1.44312,1.31079-1.44312,1.7428a1.84313,1.84313,0,0,0,.30725.99939l.1247.206-.09711.318a.53625.53625,0,0,1-.48633.27966H12.03235a.82038.82038,0,0,1-.55744-.17419,2.791,2.791,0,0,1-.72406-1.87171c0-1.24389.80024-2.01221,1.9068-3.0769.16822-.16236.33484-.31153.49305-.45215.53906-.48206.86883-.79346.86883-1.12329,0-.22754,0-.92237-1.53094-.92237a5.64864,5.64864,0,0,0-2.70789.6814.57756.57756,0,0,1-.56-.01514l-.20257-.12548L8.9704,8.75808V6.61013a.61963.61963,0,0,1,.33734-.60766,7.94719,7.94719,0,0,1,3.688-.81861c2.82092,0,4.7168,1.57031,4.7168,3.90894A4.28733,4.28733,0,0,1,16.09711,12.4645Z"/>
    <path class="red" d="M17.46881,2H8.53131L2,8.53125v8.9375L8.53131,24h8.9375L24,17.46875V8.53125ZM13.04016,22.01614a2.30553,2.30553,0,1,1,0-4.60718,2.24529,2.24529,0,0,1,2.4,2.28833A2.21259,2.21259,0,0,1,13.04016,22.01614Zm3.057-9.55164-.16992.15564c-.67634.6145-1.44312,1.31079-1.44312,1.7428a1.84313,1.84313,0,0,0,.30725.99939l.1247.206-.09711.318a.53625.53625,0,0,1-.48633.27966H12.03235a.82038.82038,0,0,1-.55744-.17419,2.791,2.791,0,0,1-.72406-1.87171c0-1.24389.80024-2.01221,1.9068-3.0769.16822-.16236.33484-.31153.49305-.45215.53906-.48206.86883-.79346.86883-1.12329,0-.22754,0-.92237-1.53094-.92237a5.64864,5.64864,0,0,0-2.70789.6814.57756.57756,0,0,1-.56-.01514l-.20257-.12548L8.9704,8.75808V6.61013a.61963.61963,0,0,1,.33734-.60766,7.94719,7.94719,0,0,1,3.688-.81861c2.82092,0,4.7168,1.57031,4.7168,3.90894A4.28733,4.28733,0,0,1,16.09711,12.4645Z"/>
  </g>
</svg>
