<svg xmlns="http://www.w3.org/2000/svg" height="26" id="icons" viewBox="0 0 26 26" width="26">
  <defs>
    <style>
      .fill{
		fill: #6E6E6E;
		fill-rule: evenodd;
		}
    </style>
  </defs>
  <rect class="fill" height="29.14413" rx="0.5" transform="translate(-5.36906 12.96207) rotate(-45)" width="2.76893" x="11.5776" y="-1.60999" />
  <path class="fill" d="M10.59875,5.84924a7.42456,7.42456,0,0,1,4.28873-.13439,7.53748,7.53748,0,0,1,5.32235,5.3245,7.425,7.425,0,0,1-.13531,4.28591l1.77761,1.77765a.4968.4968,0,0,0,.80855-.14618A10.47691,10.47691,0,0,0,8.9674,3.2631a.49681.49681,0,0,0-.14619.80855Z" />
  <path class="fill" d="M15.2713,20.0943a7.49058,7.49058,0,0,1-9.44171-9.442L4.05177,8.87448a.50364.50364,0,0,0-.82353.17908A10.47647,10.47647,0,0,0,16.87,22.69565a.50366.50366,0,0,0,.17908-.82353Z" />
</svg>