<svg xmlns="http://www.w3.org/2000/svg" width="32" height="32" viewBox="0 0 32 32">
  <defs>
    <style>
      .fill {
        fill: #6e6e6e;
        fill-rule: evenodd;
      }
    </style>
  </defs>
  <g id="icons">
    <path class="fill" d="M20,10A10,10,0,1,0,30,20,10,10,0,0,0,20,10Zm.19359,17.64706a1.45483,1.45483,0,0,1-1.55216-1.55216,1.552,1.552,0,0,1,3.10374,0A1.43263,1.43263,0,0,1,20.19359,27.64706Zm2.50517-8.46852c-.86455.82031-1.68486,1.551-1.68486,2.21622a2.34088,2.34088,0,0,0,.35444,1.22013.09477.09477,0,0,1-.08847.1551h-1.929a.36986.36986,0,0,1-.28838-.08961,2.42393,2.42393,0,0,1-.53193-1.52918c0-1.042.64281-1.70726,1.70726-2.77114.73127-.73185,1.15292-1.19715,1.15292-1.88419,0-.79849-.53251-1.35226-1.88477-1.35226a5.63768,5.63768,0,0,0-2.79354.7307c-.08846.04481-.17693,0-.17693-.08846V13.63511c0-.08846,0-.17693.08847-.22174a7.04542,7.04542,0,0,1,3.36971-.7755c2.66085,0,4.124,1.52918,4.124,3.48116A3.91853,3.91853,0,0,1,22.69876,19.17854Z"/>
    <path class="fill" d="M8.53094,23.53516A10.99436,10.99436,0,1,1,23.53516,8.53094a11.96889,11.96889,0,0,1,4.06054,2.18128A13.99286,13.99286,0,1,0,10.71222,27.5957,11.96889,11.96889,0,0,1,8.53094,23.53516Z"/>
  </g>
</svg>
