<svg xmlns="http://www.w3.org/2000/svg" height="26" id="icons" viewBox="0 0 26 26" width="26">
  <defs>
    <style>
      .fill{
		fill: #6E6E6E;
		fill-rule: evenodd;
		}
    </style>
  </defs>
  <path class="fill" d="M22.92377,8.591l-5.515-5.51477a.5.5,0,0,0-.70709,0L14.25183,5.52594a.66944.66944,0,0,0,.00067.94739L6.763,10.72406a1.33914,1.33914,0,0,0-.67261.70215L1.91284,21.51941a.33462.33462,0,0,0,.07257.36468l.55579.55573,4.62188-4.62188a1.89736,1.89736,0,0,1,.98843-2.27808,1.80271,1.80271,0,1,1,.036,3.3352L3.58221,23.48035l.59687.59674a.33448.33448,0,0,0,.36462.07257l10.08612-4.17487A1.33936,1.33936,0,0,0,15.337,19.291l4.22216-7.5738a.66951.66951,0,0,0,.94617-.00055L22.92377,9.2981A.5.5,0,0,0,22.92377,8.591Z" />
</svg>