<svg xmlns="http://www.w3.org/2000/svg" height="46" id="icons" viewBox="0 0 46 46" width="46">
  <defs>
    <style>
      .fill{
		fill: #6E6E6E;
		fill-rule: evenodd;
		}
    </style>
  </defs>
  <path class="fill" d="M8,10H38V30H8ZM6,9V31a1,1,0,0,0,1,1H19v4H12.5a.5.5,0,0,0-.5.5v1a.5.5,0,0,0,.5.5h21a.5.5,0,0,0,.5-.5v-1a.5.5,0,0,0-.5-.5H27V32H39a1,1,0,0,0,1-1V9a1,1,0,0,0-1-1H7A1,1,0,0,0,6,9Z" />
  <path class="fill" d="M29.94444,12v3.47222a5.12488,5.12488,0,0,0-5.20833,3.47222h3.47222v3.47223h-4.375a7.68352,7.68352,0,0,1-1.80555,2.65625A7.55907,7.55907,0,0,1,16.05556,27.625V24.15278c2.98611,0,3.92361-1.54514,5.3125-4.89584a16.63113,16.63113,0,0,1,2.60416-4.70486A7.55907,7.55907,0,0,1,29.94444,12Z" />
</svg>