<svg xmlns="http://www.w3.org/2000/svg" width="40" height="26" viewBox="0 0 40 26">
  <defs>
    <style>
      .fill {
        fill: #6e6e6e;
        fill-rule: evenodd;
      }
    </style>
  </defs>
  <g id="icons">
    <path id="pointer_copy_2" class="fill" d="M2,.501V23.499a.5.5,0,0,0,.852.35513L9,16h9a.5.5,0,0,0,.35529-.85355L2.85355.14745A.5.5,0,0,0,2,.501Z"/>
    <path class="fill" d="M19.589,19H12.80927A5.99266,5.99266,0,0,0,18,22h3.72626A8.02481,8.02481,0,0,1,19.589,19Z"/>
    <path class="fill" d="M24,9H17a5.85974,5.85974,0,0,0-1.652.26343L18.08447,12H24a3.00328,3.00328,0,0,1,3,3,2.96572,2.96572,0,0,1-.18433,1H29.91A5.96727,5.96727,0,0,0,24,9Z"/>
    <path class="fill" d="M34,9.90466H30.27374a8.02481,8.02481,0,0,1,2.13727,3H34a3,3,0,0,1,0,6H27a3.00344,3.00344,0,0,1-3-3,2.96517,2.96517,0,0,1,.18433-1H21.09a5.96727,5.96727,0,0,0,5.91,7h7a6,6,0,0,0,0-12Z"/>
  </g>
</svg>
