<svg xmlns="http://www.w3.org/2000/svg" height="46" id="icons" viewBox="0 0 46 46" width="46">
  <defs>
    <style>
      .fill{
		fill: #6E6E6E;
		fill-rule: evenodd;
		}
    </style>
  </defs>
  <path class="fill" d="M24,9.033V6h3.5a.5.5,0,0,0,.5-.5v-1a.5.5,0,0,0-.5-.5h-9a.5.5,0,0,0-.5.5v1a.5.5,0,0,0,.5.5H22V9.033a14.92834,14.92834,0,0,0-8.37036,3.25366L11.0998,9.57207l2.11673-1.95153a.50022.50022,0,0,0,.041-.70608l-.66488-.74686a.4999.4999,0,0,0-.70591-.041L6.1676,11.21766a.49981.49981,0,0,0-.041.70584l.66487.74711a.50034.50034,0,0,0,.7059.041L9.606,10.902l2.54768,2.737A14.9996,14.9996,0,1,0,24,9.033ZM23,37a13,13,0,1,1,8.45386-22.86816L23,22.58569A1,1,0,0,0,24.41418,24L32.868,15.54614A12.99335,12.99335,0,0,1,23,37Z" />
</svg>