<svg xmlns="http://www.w3.org/2000/svg" width="40" height="26" viewBox="0 0 40 26">
  <defs>
    <style>
      .fill {
        fill: #6e6e6e;
        fill-rule: evenodd;
      }
    </style>
  </defs>
  <g id="icons">
    <path id="pointer_copy_2" class="fill" d="M2,.501V23.499a.5.5,0,0,0,.852.35513L9,16h9a.5.5,0,0,0,.35529-.85355L2.85355.14745A.5.5,0,0,0,2,.501Z"/>
    <path class="fill" d="M35.90708,10.3147,33.22177,13h.65955a3.08005,3.08005,0,0,1,3.06048,2.40186A3.00493,3.00493,0,0,1,34,19H27a2.97067,2.97067,0,0,1-1.89349-.69244l3.86288-3.80443a2.75366,2.75366,0,0,1-.13055,1.53216h3.09436a5.90264,5.90264,0,0,0-.63489-3.86108l5.81384-5.71283a.49991.49991,0,0,0-.00189-.70514L35.96576,4.61177a.5.5,0,0,0-.709.00195l-5.73517,5.5824a5.92579,5.92579,0,0,0-3.49842-1.16083H19.23755a6.38293,6.38293,0,0,0-2.26184.41809L19.487,12h6.46558a3.48606,3.48606,0,0,1,1.96408.72774l-3.86289,3.80443A2.75361,2.75361,0,0,1,24.1843,15H21.08994a5.86194,5.86194,0,0,0,.348,3.24677l-5.28937,5.42474a.5.5,0,0,0,0,.70709l1.14453,1.14453a.5.5,0,0,0,.70709,0l4.97406-5.08337A5.97058,5.97058,0,0,0,27,22h6.78485a6.14388,6.14388,0,0,0,6.1781-5.32379A5.999,5.999,0,0,0,35.90708,10.3147Z"/>
  </g>
</svg>
