<svg xmlns="http://www.w3.org/2000/svg" height="46" id="icons" viewBox="0 0 46 46" width="46">
  <defs>
    <style>
      .fill{
		fill: #6E6E6E;
		fill-rule: evenodd;
		}
    </style>
  </defs>
  <path class="fill" d="M26.5,24h13a.5.5,0,0,0,.5-.5v-1a.5.5,0,0,0-.5-.5h-13a.5.5,0,0,0-.5.5v1A.5.5,0,0,0,26.5,24Zm0,4h13a.5.5,0,0,0,.5-.5v-1a.5.5,0,0,0-.5-.5h-13a.5.5,0,0,0-.5.5v1A.5.5,0,0,0,26.5,28Zm-10,0h7a.5.5,0,0,0,.5-.5v-5a.5.5,0,0,0-.5-.5h-7a.5.5,0,0,0-.5.5v5A.5.5,0,0,0,16.5,28Zm0,4h23a.5.5,0,0,0,.5-.5v-1a.5.5,0,0,0-.5-.5h-23a.5.5,0,0,0-.5.5v1A.5.5,0,0,0,16.5,32Zm0,4h23a.5.5,0,0,0,.5-.5v-1a.5.5,0,0,0-.5-.5h-23a.5.5,0,0,0-.5.5v1A.5.5,0,0,0,16.5,36ZM42,21V37a1,1,0,0,1-1,1H15a1,1,0,0,1-1-1V21a1,1,0,0,1,1-1H41A1,1,0,0,1,42,21Z" />
  <path class="fill" d="M25,8H5A1,1,0,0,0,4,9V29a1,1,0,0,0,1,1h7V18H26V9A1,1,0,0,0,25,8ZM10,28H6.5a.5.5,0,0,1-.5-.5v-1a.5.5,0,0,1,.5-.5H10Zm0-4H6.5a.5.5,0,0,1-.5-.5v-1a.5.5,0,0,1,.5-.5H10Zm0-4H6.5a.5.5,0,0,1-.5-.5v-1a.5.5,0,0,1,.5-.5H10Zm14-4.5a.5.5,0,0,1-.5.5H6.5a.5.5,0,0,1-.5-.5v-5a.5.5,0,0,1,.5-.5h17a.5.5,0,0,1,.5.5Z" />
</svg>