<svg xmlns="http://www.w3.org/2000/svg" height="46" viewBox="0 0 46 46" width="46">
  <defs>
    <style>
      .fill{
		fill: #6E6E6E;
		fill-rule: evenodd;
		}
    </style>
  </defs>
  <g id="icons">
    <path class="fill" d="M11,6a1.00294,1.00294,0,0,0-1,1v6a1,1,0,0,0,1,1h2a1,1,0,0,0,1-1V10h6V26H17a1,1,0,0,0-1,1v2a1,1,0,0,0,1,1H29a1,1,0,0,0,1-1V27a1,1,0,0,0-1-1H26V10h6v3a1,1,0,0,0,1,1h2a1,1,0,0,0,1-1V7a1.00294,1.00294,0,0,0-1-1Z" />
    <path class="fill" d="M10.16017,37.93954l4.06839,4.0119a.54259.54259,0,0,0,.75024-.00832l3.75955-3.75481,3.87891,3.75481a.54244.54244,0,0,0,.75576-.00833l3.75686-3.809L31.02044,41.949a.54265.54265,0,0,0,.74729.0054L35.85294,37.986A.48206.48206,0,0,0,36,37.63243V35.04664a.52333.52333,0,0,0-.88877-.35355l-3.72,3.62022L27.5663,34.66686a.5428.5428,0,0,0-.74171,0l-3.82491,3.64645-3.82491-3.64645a.5428.5428,0,0,0-.74171,0l-3.82491,3.64645-3.70627-3.66667a.528.528,0,0,0-.89532.35356V37.586A.48846.48846,0,0,0,10.16017,37.93954Z" />
  </g>
</svg>