<svg xmlns="http://www.w3.org/2000/svg" height="46" id="icons" viewBox="0 0 46 46" width="46">
  <defs>
    <style>
      .fill{
		fill: #6E6E6E;
		fill-rule: evenodd;
		}
    </style>
  </defs>
  <path class="fill" d="M22.70688,32.80891l-11.455-7.63635L7.24781,27.84223a1,1,0,0,0-.00007,1.664L22.152,39.44505a1.5,1.5,0,0,0,1.66441,0l14.904-9.93883a1,1,0,0,0,0-1.664l-4.00385-2.66966-11.455,7.63635A.5.5,0,0,1,22.70688,32.80891ZM38.75223,16.494,23.84811,6.555a1.5,1.5,0,0,0-1.66445,0l-14.904,9.939a1,1,0,0,0,.00011,1.664l14.90408,9.93622a1.5,1.5,0,0,0,1.66412,0l14.90418-9.93622A1,1,0,0,0,38.75223,16.494Z" id="Fill" />
</svg>