<svg xmlns="http://www.w3.org/2000/svg" height="46" id="icons" viewBox="0 0 46 46" width="46">
  <defs>
    <style>
      .fill{
		fill: #6E6E6E;
		fill-rule: evenodd;
		}
    </style>
  </defs>
  <path class="fill" d="M42,22.3125a8.31253,8.31253,0,0,1-8.3125,8.3125h-9.5a8.30589,8.30589,0,0,1-7.96373-10.6875h3.87445a4.69473,4.69473,0,0,0-.66072,2.375,4.75544,4.75544,0,0,0,4.75,4.75h9.5a4.75,4.75,0,0,0,0-9.5H31.3723A10.74543,10.74543,0,0,0,28.51524,14H33.6875A8.31244,8.31244,0,0,1,42,22.3125Zm-27.3723,4.75H12.3125a4.75,4.75,0,0,1,0-9.5h9.5a4.75535,4.75535,0,0,1,4.75,4.75,4.69524,4.69524,0,0,1-.66079,2.375h3.87452A8.30589,8.30589,0,0,0,21.8125,14h-9.5a8.3125,8.3125,0,0,0,0,16.625h5.17226A10.74543,10.74543,0,0,1,14.6277,27.0625Z" />
</svg>