<svg xmlns="http://www.w3.org/2000/svg" width="40" height="26" viewBox="0 0 40 26">
  <defs>
    <style>
      .fill {
        fill: #6e6e6e;
        fill-rule: evenodd;
      }
    </style>
  </defs>
  <g id="icons">
    <path class="fill" d="M26,4h2V6H26ZM10,4h2V6H10Zm2,18H10V20h2Zm14-4H24.5a.5.5,0,0,0-.5.5V20H14V18.5a.5.5,0,0,0-.5-.5H12V8h1.5a.5.5,0,0,0,.5-.5V6H24V7.5a.5.5,0,0,0,.5.5H26Zm2,2v2H26V20ZM28,8h1.5a.5.5,0,0,0,.5-.5v-5a.5.5,0,0,0-.5-.5h-5a.5.5,0,0,0-.5.5V4H14V2.5a.5.5,0,0,0-.5-.5h-5a.5.5,0,0,0-.5.5v5a.5.5,0,0,0,.5.5H10V18H8.5a.5.5,0,0,0-.5.5v5a.5.5,0,0,0,.5.5h5a.5.5,0,0,0,.5-.5V22H24v1.5a.5.5,0,0,0,.5.5h5a.5.5,0,0,0,.5-.5v-5a.5.5,0,0,0-.5-.5H28Z"/>
  </g>
</svg>
