<svg xmlns="http://www.w3.org/2000/svg" height="26" viewBox="0 0 40 26" width="40">
  <defs>
    <style>
      .fill{
		fill: #6E6E6E;
		fill-rule: evenodd;
		}
    </style>
  </defs>
  <g id="icons">
    <path class="fill" d="M25.58582,8H22V.5a.5.5,0,0,0-.5-.5h-3a.5.5,0,0,0-.5.5V8H14.41418a.99993.99993,0,0,0-.707,1.707L20,16.4l6.29285-6.693A.99993.99993,0,0,0,25.58582,8Z" />
    <path class="fill" d="M35,14H26l-6,6.4L14,14H5a1,1,0,0,0-1,1v8a1,1,0,0,0,1,1H35a1,1,0,0,0,1-1V15A1,1,0,0,0,35,14ZM9,20H7a1,1,0,0,1-1-1V17a1,1,0,0,1,1-1H9a1,1,0,0,1,1,1v2A1,1,0,0,1,9,20Z" />
  </g>
</svg>