<svg xmlns="http://www.w3.org/2000/svg" height="26" viewBox="0 0 40 26" width="40">
  <defs>
    <style>
      .fill{
		fill: #6E6E6E;
		fill-rule: evenodd;
		}
    </style>
  </defs>
  <g id="icons">
    <path class="fill" d="M32.82214,8.24261A.5.5,0,0,0,32,8.625V12H26V3a1,1,0,0,0-1-1H5A1,1,0,0,0,4,3V23a1,1,0,0,0,1,1H25a1,1,0,0,0,1-1V14h6v3.375a.5.5,0,0,0,.818.38586L38,13.05536ZM24,22H6V4H24v8H18V10.50018a.5.5,0,0,0-.50024-.5l-5,.0022a.5.5,0,0,0-.49976.5V15.5a.5.5,0,0,0,.5.5h5a.5.5,0,0,0,.5-.5V14h6Z" />
  </g>
</svg>