<svg xmlns="http://www.w3.org/2000/svg" width="44" height="36" viewBox="0 0 44 36">
  <defs>
    <style>
      .fill {
        fill: #6e6e6e;
      }
    </style>
  </defs>
  <g id="i_c_o_n_s" data-name="i c o n s">
    <path class="fill" d="M22,12.00018a5.99982,5.99982,0,1,0,6,5.99964A6.0068,6.0068,0,0,0,22,12.00018Z"/>
    <path class="fill" d="M37,8.00024H30.95007L27.59753,4.32617a1.00072,1.00072,0,0,0-.73877-.32593H17.14124a1.00072,1.00072,0,0,0-.73877.32593L13.05005,8.00024H7a1.00005,1.00005,0,0,0-1,1v20a1,1,0,0,0,1,1H37a1,1,0,0,0,1-1v-20A1.00005,1.00005,0,0,0,37,8.00024ZM22,26.19978a8.19978,8.19978,0,1,1,8.20007-8.19993A8.20007,8.20007,0,0,1,22,26.19978Z"/>
  </g>
</svg>
