<svg id="icons" xmlns="http://www.w3.org/2000/svg" width="36" height="36" viewBox="0 0 36 36">
  <defs>
    <style>
      .fill {
        fill-rule: evenodd;
        opacity: 0.65;
      }
    </style>
  </defs>
  <path class="fill" d="M18,4A14,14,0,1,0,32,18,14.00007,14.00007,0,0,0,18,4Zm9.50659,8.347L16.1835,25.94684a1,1,0,0,1-1.50089.041l-6.06044-6.5188a.49982.49982,0,0,1,.04859-.70117L10.886,16.81722a.5.5,0,0,1,.7091.04859l3.76825,3.85185,9.1202-10.89395a.49932.49932,0,0,1,.70239-.06318L27.442,11.63924A.50254.50254,0,0,1,27.50659,12.347Z"/>
</svg>
