<svg xmlns="http://www.w3.org/2000/svg" width="26" height="26" viewBox="0 0 26 26">
  <defs>
    <style>
      .fill {
        fill: #6e6e6e;
        fill-rule: evenodd;
      }
    </style>
  </defs>
  <g id="icons">
    <path class="fill" d="M14,4.05048V2h2.5a.5.5,0,0,0,.5-.5V.5a.5.5,0,0,0-.5-.5h-7A.5.5,0,0,0,9,.5v1a.5.5,0,0,0,.5.5H12V4.04871A10.95031,10.95031,0,0,0,6.45435,6.17432l-1.17408-1.212.40168-.40167a.5.5,0,0,0,0-.70709l-.7071-.7071a.49989.49989,0,0,0-.70709,0L2.14642,5.26776a.50007.50007,0,0,0,0,.70715l.7071.7071a.5.5,0,0,0,.70709,0L3.866,6.37659,4.96082,7.50891A10.99257,10.99257,0,1,0,14,4.05048ZM13,24A9,9,0,1,1,18.57306,7.94165L12.2218,14.29291a1,1,0,0,0,1.41425,1.41418L19.9975,9.34564A8.99587,8.99587,0,0,1,13,24Z"/>
  </g>
</svg>
