<svg xmlns="http://www.w3.org/2000/svg" height="26" viewBox="0 0 26 26" width="26">
  <defs>
    <style>
      .fill{
		fill: #6E6E6E;
		fill-rule: evenodd;
		}
    </style>
  </defs>
  <g id="icons">
    <path class="fill" d="M19.5,2a.50147.50147,0,0,1,.5.5v3a.5.5,0,0,1-.5.5h-1a.5.5,0,0,1-.5-.5V4H14V16h1.5a.5.5,0,0,1,.5.5v1a.5.5,0,0,1-.5.5h-7a.5.5,0,0,1-.5-.5v-.99992a.5.5,0,0,1,.5-.5L10,16V4H6V5.4728a.5.5,0,0,1-.5.5l-1-.00025a.5.5,0,0,1-.5-.5V2.5A.50147.50147,0,0,1,4.5,2Z" />
    <polygon class="fill" points="24 19.422 20 23.413 16 19.413 12 23.413 8 19.413 4 23.413 0 19.387 0 21.387 4 25.413 8 21.413 12 25.413 16 21.413 20 25.413 24.009 21.413 24 21.413 24 19.422" />
  </g>
</svg>