<svg xmlns="http://www.w3.org/2000/svg" data-name="S_Textfile_20_N_D@2x" height="40" id="S_Textfile_20_N_D@2x" viewBox="0 0 40 40" width="40">
  <defs>
    <style>
	.fill {
        fill: #ffffff;
		fill-rule: evenodd;
		opacity: 0.65;
	}
	</style>
  </defs>
  <path class="fill" d="M18.5,16h-6a.5.5,0,0,1-.5-.5v-1a.5.5,0,0,1,.5-.5h6a.5.5,0,0,1,.5.5v1A.5.5,0,0,1,18.5,16ZM28,21.5v-1a.5.5,0,0,0-.5-.5h-15a.5.5,0,0,0-.5.5v1a.5.5,0,0,0,.5.5h15A.5.5,0,0,0,28,21.5Zm0,6v-1a.5.5,0,0,0-.5-.5h-15a.5.5,0,0,0-.5.5v1a.5.5,0,0,0,.5.5h15A.5.5,0,0,0,28,27.5ZM34,14V35a1,1,0,0,1-1,1H7a1,1,0,0,1-1-1V5A1,1,0,0,1,7,4H24a1.69291,1.69291,0,0,1,1.19714.49585l8.307,8.307A1.693,1.693,0,0,1,34,14Zm-2,2H23a1,1,0,0,1-1-1V6H8V34H32Zm0-2L24,6v8Z" />
</svg>