<svg xmlns="http://www.w3.org/2000/svg" height="26" viewBox="0 0 40 26" width="40">
  <defs>
    <style>
      .fill{
		fill: #6E6E6E;
		fill-rule: evenodd;
		}

      .fillPale {
        opacity: 0.15;
      }
    </style>
  </defs>
  <g id="icons">
    <path class="fill" d="M20,6.05865V4h1.5a.5.5,0,0,0,.5-.5v-1a.5.5,0,0,0-.5-.5h-5a.5.5,0,0,0-.5.5v1a.5.5,0,0,0,.5.5H18V6.06683a8.96542,8.96542,0,0,0-3.45886,1.122L13.4696,6.11725l.40168-.40167a.5.5,0,0,0,0-.7071l-.7071-.70709a.49989.49989,0,0,0-.70709,0L10.33575,6.42267a.50007.50007,0,0,0,0,.70715l.7071.70709a.5.5,0,0,0,.70709,0l.30542-.30542.8551.85517A8.99223,8.99223,0,1,0,20,6.05865ZM19,22.2A7.2,7.2,0,1,1,23.38586,9.29907l-5.04815,5.04828c-.01074.01062-.01856.02014-.02869.03113a.929.929,0,1,0,1.30939,1.31714c.01159-.0105.02313-.0221.03424-.03333l5.04828-5.04815A7.1912,7.1912,0,0,1,19,22.2Z" />
    <path class="fillPale" d="M19,22.2A7.2,7.2,0,1,1,23.38586,9.29907l-5.04815,5.04828c-.01074.01062-.01856.02014-.02869.03113a.929.929,0,1,0,1.30939,1.31714c.01159-.0105.02313-.0221.03424-.03333l5.04828-5.04815A7.1912,7.1912,0,0,1,19,22.2Z" />
  </g>
</svg>