<svg xmlns="http://www.w3.org/2000/svg" height="32" viewBox="0 0 32 32" width="32">
  <defs>
    <style>
      .fill{
		fill: #6E6E6E;
		fill-rule: evenodd;
		}
    </style>
  </defs>
  <g id="icons">
    <path class="fill" d="M3.458,5.87287,26.43864,28.85355a.5.5,0,0,0,.70711,0l1.27238-1.27238a.5.5,0,0,0,0-.70711L5.43745,3.89338a.5.5,0,0,0-.70711,0L3.458,5.16577A.5.5,0,0,0,3.458,5.87287ZM23.37235,19h.627a3,3,0,1,0,0-6h-6.627l-2.57673-2.57672A5.97549,5.97549,0,0,1,16.9993,10h7a5.99663,5.99663,0,0,1,2.01782,11.64478Zm-15.593-5.97778A2.99268,2.99268,0,0,0,7.9993,19h5.75781l2.79083,2.79083A5.99023,5.99023,0,0,1,14.9993,22h-7A5.99611,5.99611,0,0,1,5.37015,10.613Z" />
  </g>
</svg>