<svg xmlns="http://www.w3.org/2000/svg" width="26" height="26" viewBox="0 0 26 26">
  <defs>
    <style>
      .fill {
        fill: #6e6e6e;
        fill-rule: evenodd;
      }
    </style>
  </defs>
  <g id="icons">
    <path class="fill" d="M17.58579,0H3A1,1,0,0,0,2,1V23a1,1,0,0,0,1,1H23a1,1,0,0,0,1-1V6.70711A1,1,0,0,0,23.70711,6L18.29289.29289A1,1,0,0,0,17.58579,0ZM18,2.54189,21.45824,6H18ZM22,22H4V2H16V7a1,1,0,0,0,1,1h5Z"/>
    <path class="fill" d="M15.57568,9.38965a3.33075,3.33075,0,0,1-1.206,2.60058c-.73486.69727-1.43214,1.31836-1.43214,1.88379a1.98982,1.98982,0,0,0,.30128,1.03711.08055.08055,0,0,1-.0752.13184H11.52393a.31436.31436,0,0,1-.24512-.07617,2.06031,2.06031,0,0,1-.45215-1.29981c0-.88574.54639-1.45117,1.45117-2.35547.62158-.62207.98-1.01757.98-1.60156,0-.67871-.45263-1.14941-1.602-1.14941a4.792,4.792,0,0,0-2.37451.62109c-.0752.03809-.15039,0-.15039-.07519V7.27832c0-.0752,0-.15039.07519-.18848a5.98861,5.98861,0,0,1,2.86426-.65918C14.332,6.43066,15.57568,7.73047,15.57568,9.38965ZM10.9209,17.86914a1.2513,1.2513,0,0,1,1.31933-1.2998,1.25084,1.25084,0,0,1,1.31885,1.2998,1.21774,1.21774,0,0,1-1.31885,1.31934A1.23661,1.23661,0,0,1,10.9209,17.86914Z"/>
  </g>
</svg>
