<svg xmlns="http://www.w3.org/2000/svg" width="40" height="26" viewBox="0 0 40 26">
  <defs>
    <style>
      .fill {
        fill: #6e6e6e;
        fill-rule: evenodd;
      }
    </style>
  </defs>
  <g id="icons">
    <path class="fill" d="M28.74957,14c-.44134,4.251-4.61236,7.88947-8.52069,7.88947-2.83362,0-5.08539-2.30426-7.03711-4.36811L15.791,14.84859A.5.5,0,0,0,15.43253,14H8v7.62864a.5.5,0,0,0,.85845.34859l2.8086-2.88812C13.766,21.59229,16.80811,24,20.22888,24A11.20269,11.20269,0,0,0,30.95172,14Z"/>
    <path class="fill" d="M28.51343,7.15234l-.106-.10522C26.20319,4.36206,23.21088,2,19.69427,2a11.22759,11.22759,0,0,0-10.719,10h2.18494c.43786-4.251,4.65655-8,8.534-8,2.91431,0,5.26661,2.16553,7.07,4.57007l.13141.16919-2.45038,2.40381A.5.5,0,0,0,24.79545,12H32V4.92306a.5.5,0,0,0-.85014-.35694Z"/>
  </g>
</svg>
