<svg id="icons" xmlns="http://www.w3.org/2000/svg" width="80" height="80" viewBox="0 0 80 80">
  <defs>
    <style>
      .fill {
        fill: #6e6e6e;
        fill-rule: evenodd;
      }
    </style>
  </defs>
  <path class="fill" d="M67,10H13a1,1,0,0,0-1,1V69a1,1,0,0,0,1,1H67a1,1,0,0,0,1-1V11A1,1,0,0,0,67,10ZM20,65.5a.5.5,0,0,1-.5.5h-3a.5.5,0,0,1-.5-.5v-3a.5.5,0,0,1,.5-.5h3a.5.5,0,0,1,.5.5Zm0-8a.49987.49987,0,0,1-.5.5h-3a.49987.49987,0,0,1-.5-.5v-3a.50018.50018,0,0,1,.5-.5h3a.50018.50018,0,0,1,.5.5Zm0-8a.5.5,0,0,1-.5.5h-3a.5.5,0,0,1-.5-.5v-3a.5.5,0,0,1,.5-.5h3a.5.5,0,0,1,.5.5Zm0-8a.5.5,0,0,1-.5.5h-3a.5.5,0,0,1-.5-.5v-3a.5.5,0,0,1,.5-.5h3a.5.5,0,0,1,.5.5Zm0-8a.49987.49987,0,0,1-.5.5h-3a.49987.49987,0,0,1-.5-.5v-3a.50018.50018,0,0,1,.5-.5h3a.50018.50018,0,0,1,.5.5Zm0-8a.5.5,0,0,1-.5.5h-3a.5.5,0,0,1-.5-.5v-3a.5.5,0,0,1,.5-.5h3a.5.5,0,0,1,.5.5Zm0-8a.5.5,0,0,1-.5.5h-3a.5.5,0,0,1-.5-.5v-3a.5.5,0,0,1,.5-.5h3a.5.5,0,0,1,.5.5Zm36,24a.5.5,0,0,1-.5.5h-31a.5.5,0,0,1-.5-.5v-3a.5.5,0,0,1,.5-.5h31a.5.5,0,0,1,.5.5Zm8,24a.5.5,0,0,1-.5.5h-3a.5.5,0,0,1-.5-.5v-3a.5.5,0,0,1,.5-.5h3a.5.5,0,0,1,.5.5Zm0-8a.49987.49987,0,0,1-.5.5h-3a.49987.49987,0,0,1-.5-.5v-3a.50018.50018,0,0,1,.5-.5h3a.50018.50018,0,0,1,.5.5Zm0-8a.5.5,0,0,1-.5.5h-3a.5.5,0,0,1-.5-.5v-3a.5.5,0,0,1,.5-.5h3a.5.5,0,0,1,.5.5Zm0-8a.5.5,0,0,1-.5.5h-3a.5.5,0,0,1-.5-.5v-3a.5.5,0,0,1,.5-.5h3a.5.5,0,0,1,.5.5Zm0-8a.49987.49987,0,0,1-.5.5h-3a.49987.49987,0,0,1-.5-.5v-3a.50018.50018,0,0,1,.5-.5h3a.50018.50018,0,0,1,.5.5Zm0-8a.5.5,0,0,1-.5.5h-3a.5.5,0,0,1-.5-.5v-3a.5.5,0,0,1,.5-.5h3a.5.5,0,0,1,.5.5Zm0-8a.5.5,0,0,1-.5.5h-3a.5.5,0,0,1-.5-.5v-3a.5.5,0,0,1,.5-.5h3a.5.5,0,0,1,.5.5Z"/>
</svg>
