<svg xmlns="http://www.w3.org/2000/svg" data-name="S_Visibility_Xs_N@2x" height="26" id="S_Visibility_Xs_N_2x" viewBox="0 0 26 26" width="26">
  <defs>
    <style>
      .fill{
		fill: #6E6E6E;
		fill-rule: evenodd;
		}

      
    </style>
  </defs>
  <path class="fill" d="M13.056,5C5.722,5,1,12.384,1,12.384S5.666,19,13.056,19,25,12.384,25,12.384,20.446,5,13.056,5ZM13,17.123a5.206,5.206,0,0,1-5.281-5.132A5.2,5.2,0,0,1,13,6.877a5.2,5.2,0,0,1,5.281,5.114A5.206,5.206,0,0,1,13,17.123Zm.112-7.885a2.415,2.415,0,0,1,.616.072,1.533,1.533,0,0,0-.205.769,1.673,1.673,0,0,0,1.7,1.645,1.777,1.777,0,0,0,.765-.179,2.133,2.133,0,0,1,.075.59,2.949,2.949,0,1,1-2.949-2.9Z" />
  </svg>