<svg xmlns="http://www.w3.org/2000/svg" data-name="S_Video_20_N_D@2x" height="40" id="S_Video_20_N_D@2x" viewBox="0 0 40 40" width="40">
  <defs>
    <style>
	.fill {
        fill: #ffffff;
		fill-rule: evenodd;
		opacity: 0.65;
	}
	</style>
  </defs>
  <path class="fill" d="M32.83333,4H7.16667A1.155,1.155,0,0,0,6,5.14282V32.85693A1.155,1.155,0,0,0,7.16667,34H32.83333A1.155,1.155,0,0,0,34,32.85693V5.14282A1.155,1.155,0,0,0,32.83333,4ZM10,30.5a.5.5,0,0,1-.5.5h-1a.5.5,0,0,1-.5-.5v-3a.5.5,0,0,1,.5-.5h1a.5.5,0,0,1,.5.5Zm22,0a.5.5,0,0,1-.5.5h-1a.5.5,0,0,1-.5-.5v-3a.5.5,0,0,1,.5-.5h1a.5.5,0,0,1,.5.5Zm-22-7a.5.5,0,0,1-.5.5h-1a.5.5,0,0,1-.5-.5v-3a.5.5,0,0,1,.5-.5h1a.5.5,0,0,1,.5.5Zm22,0a.5.5,0,0,1-.5.5h-1a.5.5,0,0,1-.5-.5v-3a.5.5,0,0,1,.5-.5h1a.5.5,0,0,1,.5.5Zm-22-7a.5.5,0,0,1-.5.5h-1a.5.5,0,0,1-.5-.5v-3a.5.5,0,0,1,.5-.5h1a.5.5,0,0,1,.5.5Zm22,0a.5.5,0,0,1-.5.5h-1a.5.5,0,0,1-.5-.5v-3a.5.5,0,0,1,.5-.5h1a.5.5,0,0,1,.5.5Zm-22-7a.5.5,0,0,1-.5.5h-1A.5.5,0,0,1,8,9.5v-3A.5.5,0,0,1,8.5,6h1a.5.5,0,0,1,.5.5Zm22,0a.5.5,0,0,1-.5.5h-1a.5.5,0,0,1-.5-.5v-3a.5.5,0,0,1,.5-.5h1a.5.5,0,0,1,.5.5Zm-4,10a.5.5,0,0,1-.5.5h-15a.5.5,0,0,1-.5-.5v-1a.5.5,0,0,1,.5-.5h15a.5.5,0,0,1,.5.5Z" />
</svg>