<svg xmlns="http://www.w3.org/2000/svg" data-name="S_Video_Xs_N_D@2x" height="26" id="S_Video_Xs_N_D@2x" viewBox="0 0 26 26" width="26">
  <defs>
    <style>
	.fill {
        fill: #ffffff;
		fill-rule: evenodd;
		opacity: 0.65;
	}
	</style>
  </defs>
  <path class="fill" d="M23,2H3A1,1,0,0,0,2,3V23a1,1,0,0,0,1,1H23a1,1,0,0,0,1-1V3A1,1,0,0,0,23,2ZM6,21.5a.5.5,0,0,1-.5.5h-1a.5.5,0,0,1-.5-.5v-1a.5.5,0,0,1,.5-.5h1a.5.5,0,0,1,.5.5Zm0-4a.5.5,0,0,1-.5.5h-1a.5.5,0,0,1-.5-.5v-1a.5.5,0,0,1,.5-.5h1a.5.5,0,0,1,.5.5Zm0-4a.5.5,0,0,1-.5.5h-1a.5.5,0,0,1-.5-.5v-1a.5.5,0,0,1,.5-.5h1a.5.5,0,0,1,.5.5Zm0-4a.5.5,0,0,1-.5.5h-1A.5.5,0,0,1,4,9.5v-1A.5.5,0,0,1,4.5,8h1a.5.5,0,0,1,.5.5Zm0-4a.5.5,0,0,1-.5.5h-1A.5.5,0,0,1,4,5.5v-1A.5.5,0,0,1,4.5,4h1a.5.5,0,0,1,.5.5Zm12,8a.5.5,0,0,1-.5.5h-9a.5.5,0,0,1-.5-.5v-1a.5.5,0,0,1,.5-.5h9a.5.5,0,0,1,.5.5Zm4,8a.5.5,0,0,1-.5.5h-1a.5.5,0,0,1-.5-.5v-1a.5.5,0,0,1,.5-.5h1a.5.5,0,0,1,.5.5Zm0-4a.5.5,0,0,1-.5.5h-1a.5.5,0,0,1-.5-.5v-1a.5.5,0,0,1,.5-.5h1a.5.5,0,0,1,.5.5Zm0-4a.5.5,0,0,1-.5.5h-1a.5.5,0,0,1-.5-.5v-1a.5.5,0,0,1,.5-.5h1a.5.5,0,0,1,.5.5Zm0-4a.5.5,0,0,1-.5.5h-1a.5.5,0,0,1-.5-.5v-1a.5.5,0,0,1,.5-.5h1a.5.5,0,0,1,.5.5Zm0-4a.5.5,0,0,1-.5.5h-1a.5.5,0,0,1-.5-.5v-1a.5.5,0,0,1,.5-.5h1a.5.5,0,0,1,.5.5Z" />
</svg>