<svg id="icons" xmlns="http://www.w3.org/2000/svg" width="26" height="26" viewBox="0 0 26 26">
  <defs>
    <style>
      .fill {
        fill: #6e6e6e;
        fill-rule: evenodd;
      }
    </style>
  </defs>
  <path class="fill" d="M23,2H3A1,1,0,0,0,2,3V23a1,1,0,0,0,1,1H23a1,1,0,0,0,1-1V3A1,1,0,0,0,23,2ZM6,21.5a.5.5,0,0,1-.5.5h-1a.5.5,0,0,1-.5-.5v-1a.5.5,0,0,1,.5-.5h1a.5.5,0,0,1,.5.5Zm0-4a.5.5,0,0,1-.5.5h-1a.5.5,0,0,1-.5-.5v-1a.5.5,0,0,1,.5-.5h1a.5.5,0,0,1,.5.5Zm0-4a.5.5,0,0,1-.5.5h-1a.5.5,0,0,1-.5-.5v-1a.5.5,0,0,1,.5-.5h1a.5.5,0,0,1,.5.5Zm0-4a.5.5,0,0,1-.5.5h-1A.5.5,0,0,1,4,9.5v-1A.5.5,0,0,1,4.5,8h1a.5.5,0,0,1,.5.5Zm0-4a.5.5,0,0,1-.5.5h-1A.5.5,0,0,1,4,5.5v-1A.5.5,0,0,1,4.5,4h1a.5.5,0,0,1,.5.5Zm12,8a.5.5,0,0,1-.5.5h-9a.5.5,0,0,1-.5-.5v-1a.5.5,0,0,1,.5-.5h9a.5.5,0,0,1,.5.5Zm4,8a.5.5,0,0,1-.5.5h-1a.5.5,0,0,1-.5-.5v-1a.5.5,0,0,1,.5-.5h1a.5.5,0,0,1,.5.5Zm0-4a.5.5,0,0,1-.5.5h-1a.5.5,0,0,1-.5-.5v-1a.5.5,0,0,1,.5-.5h1a.5.5,0,0,1,.5.5Zm0-4a.5.5,0,0,1-.5.5h-1a.5.5,0,0,1-.5-.5v-1a.5.5,0,0,1,.5-.5h1a.5.5,0,0,1,.5.5Zm0-4a.5.5,0,0,1-.5.5h-1a.5.5,0,0,1-.5-.5v-1a.5.5,0,0,1,.5-.5h1a.5.5,0,0,1,.5.5Zm0-4a.5.5,0,0,1-.5.5h-1a.5.5,0,0,1-.5-.5v-1a.5.5,0,0,1,.5-.5h1a.5.5,0,0,1,.5.5Z"/>
</svg>
