<svg xmlns="http://www.w3.org/2000/svg" width="50" height="50" viewBox="0 0 50 50">
  <defs>
    <style>
      .red {
        fill: #f53c3c;
      }
    </style>
  </defs>
  <g id="icons-2" data-name="icons">
    <rect id="Rect" class="red" width="50" height="50" rx="3"/>
    <path d="M18.56006,18.16016a5.26115,5.26115,0,0,0-2.16992.46,5.12717,5.12717,0,0,0-1.79,1.33008A6.47669,6.47669,0,0,0,13.3999,22.04,7.96891,7.96891,0,0,0,12.96,24.75977,7.70722,7.70722,0,0,0,13.81006,28.5a6.17959,6.17959,0,0,0,2.37012,2.44043.19013.19013,0,0,1,.07959.15918l-.01954,1.12012a.0905.0905,0,0,1-.03027.08007.101.101,0,0,1-.08984,0,7.163,7.163,0,0,1-2.26026-1.66992,7.87564,7.87564,0,0,1-1.54-2.53027,8.98159,8.98159,0,0,1-.56005-3.23926,9.17943,9.17943,0,0,1,.53027-3.21,7.49337,7.49337,0,0,1,1.45019-2.45019,6.31037,6.31037,0,0,1,2.16993-1.57032,6.61057,6.61057,0,0,1,2.68994-.5498,6.35987,6.35987,0,0,1,2.2998.40039A5.007,5.007,0,0,1,22.71,18.66992a5.51026,5.51026,0,0,1,1.2002,1.94043,7.60284,7.60284,0,0,1,.42968,2.66992,7.00055,7.00055,0,0,1-.43994,2.58985,5.17814,5.17814,0,0,1-1.17969,1.83008A4.97718,4.97718,0,0,1,21.00977,28.79a5.76921,5.76921,0,0,1-2.06983.37012,4.09763,4.09763,0,0,1-1.91015-.44043,3.09434,3.09434,0,0,1-1.32959-1.34961,4.92312,4.92312,0,0,1-.48-2.31055,5.37521,5.37521,0,0,1,.5-2.35937,3.89623,3.89623,0,0,1,1.38965-1.62012A3.63489,3.63489,0,0,1,19.14014,20.5a4.01517,4.01517,0,0,1,.75.07031,6.143,6.143,0,0,1,.62988.14942.12977.12977,0,0,1,.08008.12011l-.3999,7.06055a3.33164,3.33164,0,0,0,.96-.36035,3.54291,3.54291,0,0,0,.96972-.79,3.97928,3.97928,0,0,0,.74024-1.34961,6.45426,6.45426,0,0,0,.29-2.08008,6.034,6.034,0,0,0-.58008-2.76074A4.29545,4.29545,0,0,0,20.96,18.79,4.54025,4.54025,0,0,0,18.56006,18.16016Zm.52,9.82031.35986-6.34082c-.05322-.0127-.11328-.02637-.18017-.04a1.56944,1.56944,0,0,0-.27979-.01953,2.21162,2.21162,0,0,0-1.48.49023,2.762,2.762,0,0,0-.83984,1.25977A5.17817,5.17817,0,0,0,16.3999,25a4.82672,4.82672,0,0,0,.21,1.41016,2.33281,2.33281,0,0,0,.73,1.12988,2.16347,2.16347,0,0,0,1.43995.44043h.30029Z"/>
    <path d="M28.45947,29H27.39941c-.06689,0-.09961-.04-.09961-.12012V17.98047a4.986,4.986,0,0,1-.66015.3291c-.26709.11426-.51709.21387-.75.30078-.2334.08692-.40332.14942-.51026.18945-.06689.01368-.0996-.01953-.0996-.0996v-.9004c0-.08007.02636-.126.07959-.13964a7.82989,7.82989,0,0,0,1.21044-.49024,9.73124,9.73124,0,0,0,1.08985-.61035.197.197,0,0,1,.1001-.04h.71972a.07111.07111,0,0,1,.08008.08008V28.87988C28.55957,28.96,28.52637,29,28.45947,29Z"/>
    <path d="M32.46,24.21973l-2.20019-4.79981c-.01368-.02637-.01368-.04687,0-.05957a.07987.07987,0,0,1,.06005-.02051h1.17969c.08008,0,.127.02051.14014.06055l1.70019,3.93945h.02l1.71973-3.91992c.01318-.04.03027-.06347.05029-.07031a.24576.24576,0,0,1,.06983-.00977h1.06006c.08007,0,.10644.03321.08007.10059q-.20069.43946-.49023,1.04-.29.59912-.58984,1.23926-.3003.64013-.58985,1.25-.29077.61083-.53027,1.07031.18018.43945.5,1.11035.32007.66943.66992,1.39941.3501.731.65039,1.35059.29956.61963.48.97949c.02637.04.02979.07032.00977.08985A.09446.09446,0,0,1,36.37988,29H35.17969a.1429.1429,0,0,1-.14014-.08008l-1.77978-3.96h-.02l-1.77979,3.96A.10744.10744,0,0,1,31.33984,29H30.25977a.18584.18584,0,0,1-.08008-.01953c-.02637-.01367-.02637-.04,0-.08008.16015-.334.33984-.70312.54-1.11035q.30029-.60937.60986-1.25.30981-.64014.61035-1.24024Q32.23951,24.70069,32.46,24.21973Z"/>
  </g>
</svg>
