<svg xmlns="http://www.w3.org/2000/svg" width="100" height="100" viewBox="0 0 100 100">
  <defs>
    <style>
      .yellow {
        fill: #f4c500;
      }
    </style>
  </defs>
  <g id="icons-2" data-name="icons">
    <rect id="Rect" class="yellow" width="100" height="100" rx="6"/>
    <path d="M37.12012,36.32031a10.52792,10.52792,0,0,0-4.34033.91992,10.25717,10.25717,0,0,0-3.57959,2.66016,12.936,12.936,0,0,0-2.4004,4.17969,15.93747,15.93747,0,0,0-.87988,5.43945A15.41724,15.41724,0,0,0,27.62012,57a12.359,12.359,0,0,0,4.73974,4.87988.38092.38092,0,0,1,.16016.32032l-.04,2.24023a.17892.17892,0,0,1-.06006.15918.20893.20893,0,0,1-.17969,0,14.31914,14.31914,0,0,1-4.52-3.33984,15.74193,15.74193,0,0,1-3.08007-5.05957A17.95268,17.95268,0,0,1,23.52,49.71973a18.3631,18.3631,0,0,1,1.06006-6.41993A14.98948,14.98948,0,0,1,27.48,38.40039a12.64257,12.64257,0,0,1,4.33984-3.14062,13.22341,13.22341,0,0,1,5.38038-1.09961,12.71967,12.71967,0,0,1,4.5996.7998,10.03749,10.03749,0,0,1,3.62012,2.37988,10.99913,10.99913,0,0,1,2.3999,3.87989,15.21617,15.21617,0,0,1,.86036,5.33984,14.0088,14.0088,0,0,1-.88038,5.18066,10.34383,10.34383,0,0,1-2.35986,3.66016A9.92634,9.92634,0,0,1,42.02,57.58008a11.52555,11.52555,0,0,1-4.14014.74023,8.19283,8.19283,0,0,1-3.81982-.87988,6.19568,6.19568,0,0,1-2.66016-2.7002,9.8482,9.8482,0,0,1-.96-4.62011,10.75471,10.75471,0,0,1,1-4.71973,7.79443,7.79443,0,0,1,2.78027-3.24023A7.2666,7.2666,0,0,1,38.27979,41a8.10445,8.10445,0,0,1,1.5.13965,12.00063,12.00063,0,0,1,1.26025.30078.25732.25732,0,0,1,.16016.23926L40.3999,55.7998a6.58577,6.58577,0,0,0,1.91992-.71972,7.0734,7.0734,0,0,0,1.94-1.58008,7.97133,7.97133,0,0,0,1.48046-2.7002,12.88355,12.88355,0,0,0,.57959-4.16015,12.063,12.063,0,0,0-1.15966-5.51953,8.5941,8.5941,0,0,0-3.24024-3.54A9.08163,9.08163,0,0,0,37.12012,36.32031Zm1.04,19.63965.71972-12.67969c-.10693-.02636-.22656-.05371-.35986-.08007a3.047,3.047,0,0,0-.56006-.04,4.43193,4.43193,0,0,0-2.96.97949,5.54352,5.54352,0,0,0-1.68018,2.52051A10.37454,10.37454,0,0,0,32.7998,50a9.62637,9.62637,0,0,0,.42041,2.82031,4.65874,4.65874,0,0,0,1.46,2.25977,4.31971,4.31971,0,0,0,2.87988.87988h.6001Z"/>
    <path d="M62.71924,58h-11.96a.15952.15952,0,0,1-.12012-.04.23043.23043,0,0,1-.04-.16016V56.44043a.58422.58422,0,0,1,.12012-.36035q.75952-.91992,1.72021-2,.95947-1.0796,2.01953-2.40039,1.05983-1.31984,2.22022-2.83985a21.75525,21.75525,0,0,0,2.02-3.20019,11.0199,11.0199,0,0,0,1-2.83985,14.03959,14.03959,0,0,0,.25976-2.63964,6.80174,6.80174,0,0,0-.43994-2.54,3.64726,3.64726,0,0,0-1.35986-1.71973,3.99185,3.99185,0,0,0-2.27979-.62012,6.9487,6.9487,0,0,0-2.28027.35938,10.91162,10.91162,0,0,0-2.04.96.22046.22046,0,0,1-.15967.02051c-.05371-.01367-.08007-.06055-.08007-.13965v-1.9209a.324.324,0,0,1,.06005-.19922,1.4612,1.4612,0,0,1,.13965-.16015,10.17849,10.17849,0,0,1,2.08008-.94043,8.32067,8.32067,0,0,1,2.68018-.41993,5.99281,5.99281,0,0,1,3.5.96,5.7139,5.7139,0,0,1,2.04,2.54,9.10931,9.10931,0,0,1,.65966,3.54,12.22963,12.22963,0,0,1-.2998,3A14.86967,14.86967,0,0,1,61.0791,46,19.93729,19.93729,0,0,1,58.959,49.40039q-1.5996,2.27929-2.91992,3.87988-1.31982,1.59962-2.08008,2.4795.6006-.03956,1.44043-.05957.83935-.02052,1.77979-.02051h5.98c.18652,0,.25293.06738.2002.20019l-.4004,1.96A.2137.2137,0,0,1,62.71924,58Z"/>
    <path d="M68.83887,48.44043,64.439,38.83984q-.04027-.0791,0-.12011a.16347.16347,0,0,1,.12012-.04H66.919c.16015,0,.25293.04.27978.12011l3.40039,7.87989h.03955l3.44043-7.83985c.02588-.08007.05957-.126.09961-.13964a.43229.43229,0,0,1,.14014-.02051H76.439c.16016,0,.2129.06738.16016.20019q-.40063.88038-.98047,2.08008-.58008,1.19972-1.17969,2.48047-.59985,1.28028-1.18017,2.5-.58008,1.22022-1.06006,2.13965.36034.88036,1,2.21972.6394,1.34034,1.34033,2.79981.69946,1.46191,1.29981,2.70019.59985,1.24073.96,1.96c.05322.08007.06006.14062.02.18066A.19183.19183,0,0,1,76.67871,58h-2.3999a.28465.28465,0,0,1-.27979-.16016L70.439,49.91992h-.04l-3.56006,7.91992A.214.214,0,0,1,66.59912,58H64.439a.34715.34715,0,0,1-.16015-.04c-.05322-.02637-.05322-.08008,0-.16016q.48047-.999,1.08008-2.21972.59985-1.22022,1.22021-2.5.61964-1.28028,1.21973-2.48047Q68.39868,49.3999,68.83887,48.44043Z"/>
  </g>
</svg>
