<svg xmlns="http://www.w3.org/2000/svg" width="32" height="32" viewBox="0 0 32 32">
  <defs>
    <style>
      .outline, .whiteFill {
        fill: #fff;
      }

      .outline {
        opacity: 0.65;
      }

      .whiteFill {
        opacity: 0.9;
      }
    </style>
  </defs>
  <g id="ImportedIcons">
    <path class="outline" d="M16.42938,9.00012a.50038.50038,0,0,1,.36939.163l1.67626,1.837H21.5a.5.5,0,0,1,.5.5v10a.5.5,0,0,1-.5.5H6.5a.5.5,0,0,1-.5-.5v-10a.5.5,0,0,1,.5-.5H9.525l1.67621-1.837a.50036.50036,0,0,1,.36938-.163Zm0-1H11.57062a1.5037,1.5037,0,0,0-1.1077.4885l-1.37915,1.5115H6.5a1.50169,1.50169,0,0,0-1.5,1.5v10a1.50169,1.50169,0,0,0,1.5,1.5h15a1.50169,1.50169,0,0,0,1.5-1.5v-10a1.50169,1.50169,0,0,0-1.5-1.5H18.91629L17.53745,8.48905A1.504,1.504,0,0,0,16.42938,8.00012Z"/>
    <path class="outline" d="M7.24658,5.83239,1.70708.29289A1,1,0,0,0,1,0H.5A.5.5,0,0,0,0,.5V9.32057a1.30385,1.30385,0,0,0,1.09288,1.31649,1.24247,1.24247,0,0,0,1.041-.35676L4.41422,8H6.39645A1.25078,1.25078,0,0,0,7.636,6.92233,1.29194,1.29194,0,0,0,7.24658,5.83239ZM6.39645,7H4L1.42679,9.57321a.24482.24482,0,0,1-.175.07373A.24981.24981,0,0,1,1,9.39912l0-.00267V1L6.57322,6.57321A.25.25,0,0,1,6.39645,7Z"/>
    <path d="M21.5,11.00012H18.475l-1.67626-1.837a.50038.50038,0,0,0-.36939-.163H11.57062a.50038.50038,0,0,0-.36939.163L9.525,11.00012H6.5a.5.5,0,0,0-.5.5v10a.5.5,0,0,0,.5.5h15a.5.5,0,0,0,.5-.5v-10A.5.5,0,0,0,21.5,11.00012Z"/>
    <path class="whiteFill" d="M14,11.90012a4.09981,4.09981,0,1,0,.00044,0Zm0,7.09979a2.99991,2.99991,0,1,1,3-3A2.9999,2.9999,0,0,1,14,18.99991Z"/>
    <path d="M1,1,6.57323,6.57323A.25.25,0,0,1,6.39645,7H4L1.42678,9.57323A.25.25,0,0,1,1,9.39645Z"/>
  </g>
</svg>
