<svg xmlns="http://www.w3.org/2000/svg" width="26" height="26" viewBox="0 0 26 26">
  <defs>
    <style>
      .fill {
        fill: #6e6e6e;
      }
    </style>
  </defs>
  <g id="i_c_o_n_s" data-name="i c o n s">
    <path class="fill" d="M24.07153,8.03521,17.99321,1.95838a.77156.77156,0,0,0-1.09092,0l-2.68462,2.684a.76039.76039,0,0,0-.10614.931l6.08123,6.08123.00573-.01252.13427.1326A.77117.77117,0,0,0,21.423,11.774l2.64856-2.648A.77117.77117,0,0,0,24.07153,8.03521Z"/>
    <path class="fill" d="M12.61121,6.77686,6.92273,9.397a1.44335,1.44335,0,0,0-.7301.75879L1.42908,21.64746a.72222.72222,0,0,0,.15637.78711l.37744.37744,5.33374-5.33349A1.74213,1.74213,0,0,1,7.2,17,1.80005,1.80005,0,0,1,9,15.2a1.762,1.762,0,0,1,.7821.19653,1.43148,1.43148,0,0,1,.832.83692A1.7663,1.7663,0,0,1,10.80005,17,1.79984,1.79984,0,0,1,9,18.7998a1.73734,1.73734,0,0,1-.478-.09668L3.18762,24.0376l.42786.428a.72193.72193,0,0,0,.78747.15649L15.895,19.85791a1.44466,1.44466,0,0,0,.75891-.73l2.62012-5.68848Z"/>
  </g>
</svg>
